<?xml version="1.0" standalone="no"?>
<!DOCTYPE svg PUBLIC "-//W3C//DTD SVG 20010904//EN"
 "http://www.w3.org/TR/2001/REC-SVG-20010904/DTD/svg10.dtd">
<svg version="1.0" xmlns="http://www.w3.org/2000/svg"
 width="2112.000000pt" height="2112.000000pt" viewBox="0 0 2112.000000 2112.000000"
 preserveAspectRatio="xMidYMid meet">
<metadata>
Created by potrace 1.14, written by Peter Selinger 2001-2017
</metadata>
<g transform="translate(0.000000,2112.000000) scale(0.100000,-0.100000)"
fill="#000000" stroke="none">
<path d="M10055 21109 c-1084 -50 -2214 -284 -3215 -664 -267 -102 -306 -118
-545 -223 -1422 -625 -2727 -1594 -3745 -2782 -934 -1090 -1628 -2334 -2053
-3680 -97 -307 -111 -356 -171 -596 -120 -484 -179 -799 -241 -1289 -126 -987
-113 -1907 41 -2930 128 -849 379 -1732 717 -2520 88 -207 272 -602 307 -660
9 -16 48 -88 85 -160 249 -478 608 -1034 969 -1500 596 -773 1352 -1509 2131
-2077 1326 -967 2844 -1609 4440 -1877 603 -101 994 -137 1610 -148 927 -15
1804 82 2684 298 543 133 1029 292 1551 507 522 215 1093 512 1580 822 142 90
349 228 406 270 18 14 48 35 66 48 141 97 417 308 598 456 676 554 1338 1259
1841 1961 618 862 1057 1697 1415 2695 124 345 320 1061 388 1415 77 404 141
855 171 1220 57 692 43 1461 -41 2125 -92 733 -220 1318 -436 1995 -57 180
-222 628 -286 780 -341 808 -719 1482 -1217 2170 -1093 1510 -2615 2734 -4316
3473 -258 112 -277 120 -529 215 -1008 380 -2115 606 -3230 657 -244 11 -723
11 -975 -1z m1680 -2699 c-3 -5 -11 -10 -16 -10 -6 0 -7 5 -4 10 3 6 11 10 16
10 6 0 7 -4 4 -10z m-2338 -16 c-3 -3 -12 -4 -19 -1 -8 3 -5 6 6 6 11 1 17 -2
13 -5z m2263 2 c0 -3 -4 -8 -10 -11 -5 -3 -10 -1 -10 4 0 6 5 11 10 11 6 0 10
-2 10 -4z m-1081 -39 c11 7 23 9 25 4 7 -12 -18 -21 -55 -21 -25 0 -28 2 -17
14 9 10 15 11 20 2 6 -8 13 -8 27 1z m71 3 c0 -5 -4 -10 -10 -10 -5 0 -10 5
-10 10 0 6 5 10 10 10 6 0 10 -4 10 -10z m90 0 c0 -5 -5 -10 -11 -10 -5 0 -7
5 -4 10 3 6 8 10 11 10 2 0 4 -4 4 -10z m-43 -6 c-3 -3 -12 -4 -19 -1 -8 3 -5
6 6 6 11 1 17 -2 13 -5z m-1202 -14 c14 -6 2 -9 -40 -9 -33 0 -69 4 -80 9 -14
6 -2 9 40 9 33 0 69 -4 80 -9z m1012 4 c-3 -3 -12 -4 -19 -1 -8 3 -5 6 6 6 11
1 17 -2 13 -5z m-472 -34 c-3 -5 -12 -10 -18 -10 -7 0 -6 4 3 10 19 12 23 12
15 0z m1655 1 c0 -10 -42 -23 -49 -15 -7 6 20 24 37 24 6 0 12 -4 12 -9z
m-1065 -22 c-57 -15 -80 -16 -122 -8 -29 6 -53 14 -53 18 0 4 55 8 123 8 l122
0 -70 -18z m962 -58 c-3 -13 1 -21 12 -24 9 -2 -1 -4 -22 -3 -20 1 -37 5 -37
9 0 4 0 11 0 16 0 8 18 16 44 20 4 0 6 -8 3 -18z m89 -12 c-3 -17 -6 -38 -6
-45 0 -16 -50 -44 -80 -44 -23 0 -27 -25 -5 -34 9 -3 15 0 15 9 0 18 5 18 30
5 24 -13 36 -81 18 -109 -10 -16 -10 -23 0 -33 9 -9 12 -8 12 7 0 13 3 16 11
8 7 -7 4 -20 -10 -44 -12 -19 -28 -49 -37 -67 -34 -75 -58 -102 -89 -102 -21
0 -26 -3 -16 -9 8 -5 11 -16 8 -25 -4 -9 -1 -16 5 -16 9 0 9 -3 0 -12 -7 -7
-12 -16 -12 -20 0 -20 20 -3 71 58 30 36 64 77 76 91 l21 26 17 -32 c9 -18 17
-42 19 -54 1 -12 6 -29 9 -37 15 -35 57 -192 57 -215 0 -15 6 -25 15 -25 22 0
28 -41 21 -133 -9 -117 -25 -177 -45 -170 -13 5 -14 3 -3 -8 6 -7 12 -21 12
-32 0 -26 23 -16 32 14 7 21 7 20 4 -6 -2 -16 -1 -48 4 -70 l8 -40 1 46 c0 26
8 66 16 89 8 23 15 55 15 71 0 15 4 30 8 33 12 7 36 -39 28 -53 -4 -6 -2 -11
5 -11 6 0 9 -8 6 -20 -4 -14 2 -24 16 -32 12 -6 28 -18 35 -27 11 -14 13 -10
8 25 -7 49 23 137 59 173 l24 25 10 -25 c7 -19 6 -27 -10 -38 -10 -7 -19 -22
-19 -33 0 -13 -5 -18 -14 -15 -10 4 -12 0 -9 -14 3 -10 11 -19 18 -19 19 0 -6
-85 -32 -107 -17 -14 -22 -30 -23 -68 -3 -103 0 -146 10 -140 13 8 13 -46 0
-100 -8 -36 -7 -38 6 -21 8 11 14 25 14 31 0 5 9 16 21 23 12 8 18 9 14 3 -9
-15 5 -55 16 -44 4 4 19 49 32 98 63 237 101 350 120 362 6 4 8 0 4 -10 -7
-19 8 -32 24 -21 8 4 7 9 -2 15 -11 7 -9 13 11 28 13 11 28 17 32 15 14 -9 8
-43 -9 -53 -17 -10 -17 -10 -1 -11 20 0 54 -100 63 -185 8 -70 17 -176 17
-202 0 -16 6 -23 19 -23 25 0 24 -8 -2 -29 -19 -15 -20 -18 -5 -30 11 -9 16
-10 16 -2 0 22 18 10 29 -19 5 -16 15 -30 20 -30 6 0 11 -7 11 -16 0 -9 -5
-12 -11 -8 -7 4 -10 1 -7 -7 3 -8 11 -13 18 -11 8 2 10 -5 6 -21 -4 -16 1 -28
15 -41 15 -12 20 -26 17 -46 -3 -17 1 -31 8 -34 15 -6 48 -139 39 -164 -3 -11
-1 -23 5 -27 10 -6 54 -97 80 -165 7 -19 17 -39 21 -45 4 -5 12 -30 19 -55 6
-25 29 -81 50 -125 21 -44 50 -105 65 -135 45 -96 97 -191 102 -187 7 7 -48
135 -63 148 -8 6 -14 24 -14 39 0 15 -7 33 -15 40 -8 7 -15 20 -15 29 0 10 -7
26 -15 37 -8 10 -15 25 -15 32 0 7 -9 32 -20 55 -39 79 -138 339 -163 427 -9
30 -19 87 -23 125 -4 39 -10 72 -15 75 -13 9 -20 54 -10 69 12 19 31 5 31 -24
0 -17 4 -23 14 -19 9 3 21 -13 35 -50 20 -47 26 -54 48 -53 18 1 27 -4 29 -16
1 -10 23 -49 48 -86 25 -37 46 -72 46 -78 0 -6 7 -16 15 -23 8 -7 13 -16 10
-20 -11 -17 18 -60 40 -60 35 0 93 -76 81 -106 -5 -12 -10 -13 -28 -3 -22 11
-22 11 1 -12 15 -14 20 -24 13 -27 -7 -2 -12 -8 -12 -14 0 -5 -7 -16 -15 -24
-30 -30 -10 -86 54 -153 11 -12 11 -16 -3 -26 -9 -7 -16 -18 -16 -24 0 -8 -8
-10 -22 -6 -13 3 -5 -4 17 -16 39 -21 115 -93 115 -109 0 -5 -3 -16 -6 -25 -6
-14 -9 -14 -30 0 l-24 15 21 -37 c12 -21 27 -45 35 -54 8 -8 14 -21 14 -27 0
-16 40 -82 50 -82 10 0 50 -67 50 -83 0 -11 12 -38 56 -130 8 -16 11 -33 8
-38 -3 -5 4 -25 15 -45 18 -31 19 -35 5 -41 -10 -4 -24 4 -37 19 -12 13 -30
27 -40 31 -9 4 -22 18 -29 32 -10 23 -29 35 -27 18 0 -8 36 -57 108 -149 33
-41 41 -58 32 -63 -15 -10 4 -52 47 -109 21 -27 23 -35 12 -42 -11 -7 -12 -14
-3 -32 7 -13 15 -39 19 -58 3 -19 10 -41 14 -50 17 -34 30 -89 30 -126 0 -21
9 -53 19 -70 22 -36 34 -86 33 -130 -1 -17 8 -55 19 -85 24 -61 33 -160 15
-171 -8 -5 -6 -16 7 -37 9 -16 17 -38 17 -49 0 -21 11 -45 51 -107 27 -42 42
-92 29 -100 -5 -3 -2 -29 6 -57 8 -33 10 -56 4 -62 -6 -6 -5 -15 2 -24 7 -8
13 -54 14 -105 4 -143 20 -192 42 -129 l10 27 1 -28 c1 -19 7 -31 19 -33 11
-3 24 -27 36 -65 11 -32 23 -59 26 -59 12 0 27 23 34 53 6 24 9 26 26 17 15
-8 20 -21 20 -49 0 -47 24 -98 50 -106 11 -4 21 -14 21 -23 1 -15 2 -15 6 1 5
21 23 23 23 2 0 -23 18 -18 22 7 2 12 8 23 15 25 9 3 11 -20 9 -94 -3 -88 -2
-95 9 -68 8 17 11 41 8 54 -4 16 -2 22 5 17 11 -7 18 11 24 64 4 26 7 27 46
15 19 -6 22 -3 22 23 0 16 7 35 15 42 8 7 15 18 15 25 0 7 7 15 15 19 11 4 15
20 15 56 0 28 7 64 15 81 9 16 13 34 10 39 -7 12 34 60 52 60 7 0 20 12 30 28
29 47 63 67 63 37 0 -17 0 -17 54 -20 36 -2 40 1 75 53 65 99 80 127 81 150 0
15 7 26 20 29 11 3 20 9 20 14 0 17 31 -4 44 -30 8 -14 25 -38 37 -52 13 -14
29 -35 36 -45 12 -18 12 -18 19 4 7 25 22 29 30 7 4 -8 10 -15 15 -15 6 0 5 9
-1 21 -18 33 -4 33 20 -1 23 -33 44 -84 88 -215 l27 -80 5 48 c4 34 13 56 35
79 l30 32 3 -32 c5 -48 19 -38 26 18 4 28 11 50 16 50 6 0 10 6 10 14 0 8 5
18 11 21 12 8 99 -22 99 -34 0 -4 20 -30 45 -56 32 -35 52 -49 72 -50 21 0 31
-8 46 -36 l19 -36 -31 -71 c-37 -84 -39 -97 -11 -82 10 6 25 28 31 49 6 21 22
52 34 67 20 25 25 27 39 15 27 -22 20 -64 -28 -174 -9 -22 -12 -36 -6 -32 6 4
27 40 45 81 33 73 55 94 55 53 0 -13 5 -19 13 -16 7 2 22 -3 34 -13 18 -14 20
-20 10 -34 -14 -19 -10 -96 4 -96 5 0 9 -9 9 -20 0 -11 5 -20 11 -20 8 0 9 14
5 43 -4 28 -1 51 9 71 8 15 13 32 10 36 -3 4 4 10 14 13 13 3 22 17 27 43 3
22 10 45 14 53 10 19 40 -61 40 -109 0 -24 6 -42 15 -48 9 -4 19 -32 25 -65 5
-32 12 -62 15 -68 4 -5 16 -53 26 -106 11 -53 24 -104 29 -113 31 -58 77 -293
86 -437 9 -155 -4 -211 -104 -454 -22 -53 -45 -105 -50 -115 -5 -11 -25 -50
-43 -89 -51 -107 -133 -218 -211 -287 -29 -26 -73 -66 -97 -88 -24 -23 -60
-53 -80 -68 -20 -15 -56 -43 -81 -63 -90 -73 -192 -116 -362 -155 -100 -23
-262 -12 -388 26 -94 28 -132 32 -159 18 -32 -17 -45 -58 -37 -122 l7 -52 95
-65 c114 -77 190 -125 224 -139 25 -11 105 -91 119 -119 4 -9 6 -34 5 -56 -2
-22 -5 -74 -8 -115 -9 -160 -22 -293 -33 -350 -1 -8 -5 -28 -8 -45 -16 -89 -7
-1048 11 -1234 4 -36 8 -85 10 -110 6 -74 23 -282 28 -336 3 -27 13 -93 22
-145 9 -52 18 -114 19 -138 9 -156 19 -248 35 -322 10 -47 21 -112 24 -144 6
-64 12 -76 42 -80 12 -2 19 -11 20 -27 0 -27 23 -79 34 -79 4 0 10 -18 14 -40
3 -22 11 -40 16 -40 6 0 10 -6 10 -14 0 -8 4 -16 8 -18 13 -5 72 -126 72 -147
0 -9 11 -28 24 -40 13 -13 27 -39 31 -59 3 -21 18 -54 33 -76 30 -44 61 -151
62 -213 0 -24 -6 -60 -14 -80 -8 -21 -17 -51 -21 -68 -4 -16 -18 -55 -32 -85
-14 -30 -29 -64 -34 -75 -5 -11 -13 -27 -19 -35 -5 -8 -22 -42 -38 -75 -17
-33 -42 -80 -56 -105 -14 -25 -33 -60 -42 -79 -8 -19 -41 -73 -73 -120 -50
-75 -113 -175 -146 -230 -5 -9 -20 -31 -32 -48 -13 -17 -23 -34 -23 -38 0 -4
-12 -22 -27 -40 -16 -18 -48 -63 -73 -99 -25 -37 -79 -112 -120 -167 -41 -55
-90 -121 -108 -147 -19 -26 -44 -58 -56 -72 -13 -14 -25 -30 -27 -35 -2 -6
-42 -63 -89 -128 -157 -218 -131 -184 -449 -576 -29 -36 -70 -84 -90 -107 -20
-22 -52 -62 -71 -87 -19 -25 -47 -51 -61 -57 -17 -7 -30 -24 -37 -48 -7 -23
-38 -64 -83 -110 -40 -40 -94 -103 -121 -140 -104 -141 -149 -189 -248 -264
-60 -46 -221 -211 -300 -308 -30 -36 -40 -42 -60 -37 -40 11 -60 32 -63 67 -2
17 -9 35 -15 39 -6 4 -14 23 -17 43 -5 29 -2 40 16 57 19 18 21 27 16 79 -8
93 -42 151 -80 136 -37 -14 -57 -198 -24 -222 17 -13 14 -38 -4 -27 -5 4 -9 2
-9 -4 0 -5 6 -11 13 -14 6 -2 9 -7 6 -11 -4 -4 -14 1 -23 10 -25 24 -46 2 -23
-24 21 -23 22 -36 2 -28 -8 3 -15 1 -15 -4 0 -6 5 -10 12 -10 9 0 9 -3 1 -11
-6 -6 -9 -18 -6 -25 7 -18 -5 -18 -42 2 -18 9 -25 10 -17 3 18 -20 15 -28 -10
-21 -20 5 -21 3 -10 -10 10 -13 10 -17 -4 -22 -9 -4 -26 -4 -37 0 -16 5 -19 3
-14 -10 5 -12 0 -16 -18 -16 -13 0 -26 4 -30 10 -3 5 -12 7 -20 3 -9 -3 -15 1
-15 10 0 15 -56 41 -70 32 -4 -3 -11 2 -14 11 -4 12 -2 15 9 10 17 -6 18 -4 9
17 -3 9 -14 13 -27 10 -18 -4 -19 -3 -7 6 8 6 11 11 5 11 -21 0 -32 -16 -29
-42 1 -16 -2 -28 -7 -28 -5 0 -9 11 -9 24 0 14 -5 28 -11 32 -8 4 -9 -3 -5
-23 6 -26 4 -31 -16 -37 -23 -6 -23 -6 7 -31 23 -19 26 -24 13 -25 -22 0 -24
-20 -3 -20 9 0 31 -16 49 -35 22 -23 40 -33 50 -29 9 3 16 1 16 -5 0 -6 7 -11
15 -11 8 0 15 -5 15 -11 0 -6 9 -8 23 -3 19 6 18 3 -8 -20 -16 -14 -32 -26
-35 -26 -3 0 -18 11 -33 24 -17 15 -35 22 -45 19 -23 -8 -52 -39 -52 -55 0 -7
-8 -1 -17 12 -9 14 -18 27 -19 29 -2 1 -17 -4 -35 -13 -17 -9 -36 -13 -42 -9
-6 3 -7 1 -3 -5 4 -7 16 -12 27 -12 10 0 19 -5 19 -11 0 -6 -8 -9 -17 -7 -13
4 -18 -2 -20 -20 -1 -18 1 -21 8 -11 6 11 12 10 29 -8 11 -12 20 -29 20 -38 0
-8 5 -15 11 -15 5 0 7 -4 4 -10 -10 -16 -36 -12 -52 7 -8 10 -12 13 -9 6 4 -6
2 -14 -4 -18 -6 -4 -5 -18 4 -39 10 -25 11 -37 3 -45 -8 -8 -8 -11 0 -11 6 0
10 -14 9 -30 -1 -17 -4 -29 -7 -28 -3 2 -14 -4 -24 -12 -15 -12 -17 -12 -10
-1 6 11 4 13 -9 8 -10 -4 -21 -7 -25 -7 -15 0 2 -51 20 -60 14 -8 16 -18 12
-45 -4 -23 -2 -35 6 -35 8 0 10 -11 6 -34 -5 -23 -2 -38 8 -47 13 -12 12 -17
0 -36 -9 -13 -13 -32 -10 -43 4 -17 -1 -21 -34 -26 -32 -5 -37 -9 -28 -20 9
-11 8 -14 -1 -14 -8 0 -10 -3 -7 -6 10 -11 -31 -62 -56 -70 -12 -4 -40 -19
-62 -33 -22 -15 -53 -32 -68 -39 -15 -7 -33 -17 -40 -23 -12 -11 -73 -46 -160
-94 -37 -20 -52 -23 -62 -15 -7 6 -34 13 -59 15 -46 4 -73 18 -151 82 -23 17
-60 40 -83 50 -22 10 -67 43 -98 73 -61 59 -89 107 -73 127 7 7 6 26 -2 55 -7
24 -14 48 -15 53 0 6 -4 17 -8 27 -4 9 -4 31 1 50 5 18 7 44 6 58 -2 14 -4 39
-3 55 0 23 -2 27 -10 15 -6 -9 -10 -10 -10 -3 0 6 4 14 9 17 15 10 -1 57 -24
72 -16 10 -21 22 -19 42 2 15 -1 44 -6 65 -4 21 -4 39 1 43 5 3 0 19 -12 35
-16 23 -18 33 -9 44 6 8 9 19 5 25 -3 6 3 10 14 10 12 0 21 2 21 4 0 15 -14
36 -24 36 -7 0 -10 14 -8 41 3 32 -1 46 -19 65 -12 13 -17 24 -11 24 7 0 11 3
10 8 -4 18 15 61 30 68 24 11 46 11 53 1 10 -14 29 2 22 18 -3 8 -1 15 5 15
13 0 77 -62 74 -72 -1 -4 6 -4 15 -1 9 4 21 -1 29 -12 13 -18 14 -18 33 0 19
17 27 16 61 -4 46 -26 80 -41 94 -41 8 0 20 -9 26 -20 6 -11 17 -20 25 -20 8
0 15 -4 15 -10 0 -5 8 -10 18 -10 9 0 35 -17 57 -38 22 -21 53 -42 68 -46 15
-3 47 -20 69 -36 23 -17 52 -30 65 -30 14 0 23 -6 23 -15 0 -9 6 -15 13 -14
26 3 35 -2 40 -21 3 -12 14 -20 26 -20 30 0 71 29 65 45 -3 7 3 16 14 19 11 4
26 14 33 23 12 14 10 15 -21 8 -32 -6 -34 -6 -15 8 10 8 25 13 32 10 19 -7 16
18 -4 32 -14 10 -10 12 21 10 20 -1 40 -5 43 -9 11 -10 51 -7 59 6 5 8 0 9
-15 5 -18 -4 -20 -3 -10 9 15 19 28 18 36 -3 9 -25 19 -30 53 -25 24 3 28 7
20 21 -5 10 -6 28 -3 39 7 29 -14 54 -41 47 -12 -3 -15 -2 -8 1 17 8 15 33 -3
40 -8 4 -15 14 -15 23 0 12 -2 13 -9 3 -7 -11 -9 -11 -14 0 -7 20 38 59 52 45
8 -8 11 -5 11 10 0 12 -5 25 -10 28 -8 5 -7 11 0 20 8 10 8 19 1 34 -8 14 -8
21 2 24 7 3 5 6 -5 6 -10 1 -18 7 -18 15 0 25 -20 29 -43 10 -12 -11 -19 -15
-15 -10 4 4 -2 18 -13 30 -18 19 -19 21 -3 24 9 2 20 -1 24 -8 5 -9 9 -9 14
-1 5 7 -8 18 -32 29 -34 15 -39 21 -30 36 9 16 8 16 -10 7 -16 -8 -22 -7 -28
7 -13 30 -16 72 -5 72 6 0 11 9 11 20 0 11 -6 20 -12 20 -7 0 -24 3 -37 7 -17
4 -22 3 -17 -5 4 -7 3 -12 -3 -12 -21 0 -21 20 0 39 21 20 19 41 -5 41 -8 0
-19 6 -26 14 -6 8 -18 12 -26 9 -8 -3 -14 0 -14 7 0 7 -7 10 -15 6 -29 -11
-12 38 18 51 33 15 31 36 -4 42 -42 6 -50 35 -18 69 17 19 18 24 7 36 -18 17
-58 30 -58 18 0 -5 -10 -8 -22 -6 -13 1 -30 3 -39 3 -27 2 -32 32 -9 56 27 28
26 31 -14 50 -29 14 -34 21 -31 44 3 22 -2 31 -21 40 -14 6 -31 11 -39 11 -8
0 -19 9 -25 20 -7 12 -16 17 -27 13 -12 -5 -15 -2 -10 10 4 10 0 17 -10 19
-15 3 -15 4 0 20 15 15 14 17 -15 27 -17 6 -39 11 -49 11 -11 0 -19 6 -19 13
0 6 -5 4 -11 -5 -9 -17 -11 -17 -31 1 -11 11 -17 24 -13 30 3 6 2 11 -3 11 -6
0 -13 11 -16 25 -4 14 -13 25 -22 25 -24 0 -74 29 -74 43 0 7 -13 23 -30 37
-27 23 -44 60 -20 45 9 -6 14 8 11 28 -2 12 34 8 47 -5 9 -9 12 -9 12 1 0 7
-11 22 -25 33 -24 18 -37 56 -15 43 7 -4 10 3 8 19 -4 26 -18 48 -18 27 0 -7
-5 -9 -11 -6 -6 5 -2 13 11 22 15 11 18 18 10 23 -6 4 -12 21 -12 39 -1 17 -5
34 -10 37 -4 3 -6 10 -2 15 6 10 -24 41 -55 59 -13 7 -12 12 2 34 11 16 23 23
32 20 8 -4 15 -2 15 4 0 6 -5 12 -12 14 -9 3 -8 19 4 62 15 50 15 58 2 63 -9
3 -12 12 -8 26 5 16 3 19 -10 14 -10 -4 -16 -1 -16 7 0 8 -6 17 -12 19 -7 3
-1 6 13 6 25 1 51 -19 62 -49 3 -10 6 -7 6 8 1 12 8 25 16 28 13 5 12 10 -6
25 -12 11 -31 19 -41 19 -24 0 -52 26 -43 41 4 5 -1 17 -11 24 -18 13 -17 15
14 27 47 18 42 44 -9 53 -29 5 -37 10 -28 16 25 15 12 69 -16 69 -16 0 -37 33
-33 51 2 6 -9 13 -25 14 -15 2 -34 10 -42 19 -18 18 -20 46 -2 46 6 1 -1 8
-18 17 -16 8 -40 26 -52 38 -22 23 -22 23 -3 48 l20 25 -34 12 c-19 6 -50 8
-70 5 -28 -6 -41 -2 -69 19 -19 14 -38 26 -43 26 -21 0 -84 79 -84 104 0 16
-9 31 -25 42 -28 18 -36 68 -10 58 8 -4 15 -1 15 5 0 6 -15 11 -34 11 -19 0
-37 4 -40 9 -10 16 18 57 37 53 9 -2 17 1 17 6 0 5 10 12 23 16 17 5 19 8 8
15 -9 6 -12 21 -9 44 2 20 1 34 -3 31 -19 -12 -20 21 -1 36 13 11 22 31 24 53
1 24 6 33 13 27 6 -5 34 2 68 16 32 14 62 22 66 19 13 -8 21 37 9 52 -8 10 -6
13 11 13 25 0 27 17 6 47 -13 19 -13 22 0 27 8 3 27 1 41 -4 37 -14 71 -12
107 7 28 14 30 17 12 23 -18 6 -18 8 7 24 29 19 42 54 27 73 -13 15 -3 33 19
33 9 0 37 14 61 30 24 17 50 30 58 30 9 0 12 6 9 18 -5 14 0 17 29 17 19 0 40
-6 47 -13 21 -21 26 -14 24 39 -1 49 1 53 32 71 19 10 39 18 45 17 7 -1 26 4
44 10 28 11 31 15 21 31 -16 24 3 47 59 72 23 10 44 27 48 37 3 11 22 32 43
47 20 16 38 32 40 36 2 4 15 5 28 2 19 -5 32 0 54 21 29 27 31 28 70 15 48
-16 69 -5 51 28 -12 22 -5 55 10 46 5 -3 12 2 15 10 5 14 97 86 109 86 3 0 24
9 48 19 23 11 51 21 62 23 15 3 20 11 18 31 -1 21 5 30 33 43 19 9 34 20 34
25 0 5 5 9 11 9 17 0 89 62 89 77 0 7 7 13 15 13 8 0 15 5 15 10 0 6 6 10 13
10 29 0 82 36 79 53 -3 12 3 17 21 17 13 0 34 11 47 25 13 14 31 25 41 25 10
0 21 5 24 10 3 6 2 10 -4 10 -18 0 0 29 22 35 44 13 88 37 94 51 4 10 10 11
25 3 15 -8 25 -7 44 6 26 16 32 35 12 35 -9 0 -8 3 1 13 11 9 14 9 18 0 4 -10
7 -10 18 0 7 7 11 16 8 20 -3 4 4 16 16 26 11 10 18 21 14 25 -3 3 -2 6 4 6 6
0 14 12 18 28 4 15 40 59 86 103 62 60 78 81 72 95 -3 11 -10 22 -15 25 -5 3
-10 19 -11 34 -2 25 -27 51 -27 27 0 -17 -109 -124 -120 -117 -5 3 -10 2 -10
-4 0 -5 -10 -11 -22 -13 -13 -2 -22 -9 -20 -16 1 -8 -11 -12 -33 -12 -23 0
-35 -5 -35 -13 0 -8 -19 -22 -42 -33 -24 -10 -45 -21 -48 -25 -3 -4 -24 -17
-47 -29 -23 -11 -52 -32 -65 -44 -13 -13 -32 -26 -43 -30 -11 -3 -33 -17 -50
-32 -16 -14 -42 -28 -57 -31 -15 -3 -25 -9 -22 -14 3 -5 -11 -9 -30 -9 -22 0
-38 -6 -44 -17 -7 -11 -23 -17 -51 -17 -24 -1 -45 -7 -50 -15 -5 -8 -14 -10
-22 -6 -9 6 -11 3 -6 -9 4 -11 1 -19 -11 -23 -9 -4 -20 -11 -23 -16 -6 -8 -37
-14 -87 -16 -6 -1 -22 -11 -33 -22 -12 -12 -34 -22 -49 -23 -16 -1 -38 -10
-50 -21 -18 -16 -20 -16 -14 -2 11 29 -14 18 -27 -12 -7 -16 -18 -27 -23 -26
-47 14 -66 14 -80 -1 -15 -14 -17 -14 -22 0 -8 20 -24 21 -24 1 0 -8 -5 -15
-11 -15 -5 0 -8 -4 -5 -9 3 -5 0 -14 -7 -19 -18 -16 -96 -32 -102 -21 -11 16
-36 -3 -30 -22 4 -11 2 -19 -4 -19 -6 0 -11 3 -11 8 0 4 -19 15 -42 25 -34 15
-46 16 -64 6 -20 -10 -27 -8 -65 25 -46 39 -57 41 -39 6 8 -15 8 -20 1 -16 -6
4 -11 3 -11 -2 0 -5 -15 -10 -32 -11 -18 -2 -41 -3 -50 -4 -10 -1 -18 -5 -18
-10 0 -4 -5 -5 -10 -2 -6 3 -13 -1 -16 -9 -9 -25 -43 -21 -37 4 4 14 0 20 -11
20 -9 0 -16 -5 -16 -11 0 -5 -5 -7 -10 -4 -6 4 -8 10 -5 15 3 5 1 11 -4 15
-12 7 -51 -15 -51 -29 0 -4 6 -3 14 3 11 9 18 8 30 -4 21 -22 20 -28 -3 -20
-13 4 -24 -1 -34 -15 -13 -19 -19 -20 -61 -10 -30 6 -53 7 -64 1 -11 -6 -24
-6 -33 -1 -11 8 -12 13 -1 30 20 33 14 42 -19 24 -24 -12 -34 -13 -43 -4 -8 8
-7 10 7 5 10 -4 17 -2 17 4 0 6 -6 11 -14 11 -8 0 -16 6 -19 13 -2 6 -9 -5
-16 -25 -9 -27 -18 -38 -33 -38 -16 0 -19 5 -14 24 6 26 -13 50 -30 38 -6 -4
-14 -16 -18 -27 -5 -13 -10 -15 -13 -7 -6 15 -39 16 -48 2 -4 -6 -16 -8 -27
-4 -13 4 -18 2 -14 -4 10 -16 -60 -8 -80 8 -10 9 -18 10 -22 3 -4 -5 -24 -16
-45 -22 -35 -12 -39 -11 -56 11 -19 22 -19 23 -40 4 -12 -11 -21 -14 -21 -8 0
19 -28 14 -43 -8 -12 -18 -15 -18 -20 -5 -8 19 -37 20 -37 1 0 -19 -48 -30
-66 -15 -10 8 -18 8 -27 1 -9 -8 -25 -8 -55 0 -34 8 -41 14 -37 28 8 24 -9 34
-25 15 -18 -21 -3 -53 29 -60 20 -4 27 -11 26 -27 -1 -12 -6 -23 -12 -25 -6
-2 -8 -14 -5 -25 4 -17 2 -20 -12 -15 -10 4 -22 7 -27 7 -5 0 -9 12 -9 27 0
26 0 26 -34 -13 l-34 -39 5 30 c4 17 10 33 15 36 13 8 -54 3 -75 -6 -20 -8
-74 11 -79 28 -2 7 -4 36 -4 65 1 50 0 53 -21 47 -16 -4 -23 -1 -23 8 0 20 39
67 56 67 8 0 14 10 14 26 0 21 -4 24 -20 19 -15 -5 -18 -3 -14 9 3 9 -1 23
-10 32 -10 9 -14 24 -11 35 4 12 2 19 -8 19 -15 0 -48 35 -67 70 -8 15 -18 20
-32 17 -28 -8 -48 2 -48 24 0 10 -5 30 -12 44 -10 22 -9 28 2 35 15 9 50 -19
50 -40 0 -5 11 -10 25 -10 16 0 25 -6 25 -16 0 -9 5 -13 13 -10 6 3 20 9 30
12 9 4 17 11 17 16 0 17 45 -4 73 -35 21 -23 30 -28 39 -19 12 12 14 67 3 122
-6 33 -5 35 29 46 22 7 39 7 45 1 5 -5 14 -6 21 -2 16 10 -36 36 -58 29 -16
-5 -16 -5 1 9 9 8 17 18 17 23 -1 15 -69 88 -76 82 -6 -7 -54 43 -54 56 0 4
-16 29 -35 57 -19 28 -32 56 -29 61 4 6 0 15 -7 20 -11 8 -11 9 2 5 8 -3 25 3
38 12 l22 17 -26 22 c-19 17 -25 18 -25 7 0 -16 -25 -21 -34 -6 -8 12 -55 20
-62 10 -3 -5 -1 -9 4 -9 5 0 15 -11 22 -25 8 -14 20 -23 27 -21 23 9 14 -28
-12 -47 -31 -22 -70 -8 -60 23 4 12 -2 24 -16 34 -24 16 -36 88 -13 79 6 -2
16 2 22 10 9 11 4 13 -28 13 -40 0 -70 17 -70 40 0 8 -9 14 -21 14 -18 0 -20
4 -15 25 4 14 2 25 -4 25 -5 0 -10 7 -10 15 0 9 -11 27 -25 41 -30 30 -31 34
-7 34 13 0 14 2 3 9 -24 15 -16 61 15 87 l29 23 -22 15 c-17 13 -20 23 -16 55
3 23 1 41 -6 45 -12 8 2 44 23 59 7 5 4 14 -11 26 -13 11 -23 24 -23 30 0 6
-9 15 -20 21 -11 6 -20 17 -20 24 0 8 -7 19 -16 27 -14 11 -14 13 0 21 22 13
21 39 -1 31 -16 -6 -16 -5 -5 10 8 8 20 13 28 10 9 -3 14 2 14 16 0 12 7 24
15 27 11 5 13 10 5 19 -7 8 -5 22 6 45 13 26 14 37 5 51 -10 17 -8 18 11 16
14 -2 28 -16 37 -35 8 -18 22 -32 30 -32 14 0 14 -2 1 -10 -13 -9 -13 -11 0
-20 24 -16 60 -12 60 6 0 11 5 14 16 10 12 -5 15 -2 9 11 -4 10 -8 25 -9 33 0
8 -9 22 -18 32 -10 10 -18 29 -18 43 0 14 -4 25 -10 25 -5 0 -10 6 -10 14 0 9
-19 18 -52 25 -28 7 -57 16 -64 21 -7 7 -20 7 -37 1 -39 -15 -165 -10 -172 7
-3 9 -14 12 -32 8 -16 -4 -40 0 -55 8 -19 10 -29 11 -37 3 -8 -8 -17 -5 -31
11 -12 12 -17 22 -13 22 4 1 -3 7 -17 15 -15 9 -19 14 -10 15 10 0 4 9 -14 23
l-29 24 21 21 c12 12 17 22 11 22 -6 0 -8 9 -3 23 16 48 9 72 -33 115 -38 40
-41 46 -31 73 6 17 19 36 29 42 11 7 19 16 19 22 0 6 10 15 22 20 12 6 25 21
29 35 4 14 7 19 8 11 1 -10 8 -8 26 9 14 13 25 20 25 16 0 -5 11 -1 25 8 31
20 36 20 28 0 -5 -13 -3 -14 13 -6 10 5 22 11 26 11 4 1 27 11 50 21 24 11 60
20 80 20 20 0 39 4 42 9 7 11 78 24 121 23 31 -1 133 24 150 38 6 4 23 10 40
14 16 4 54 19 83 33 68 32 148 55 187 54 19 -1 40 7 53 19 12 12 27 18 33 15
5 -4 15 -2 22 3 7 5 45 12 86 16 41 3 113 13 160 22 47 8 136 17 196 20 119 5
135 8 135 23 0 6 -6 8 -13 5 -8 -3 -20 2 -27 10 -7 9 -17 13 -23 9 -17 -11
-77 -14 -77 -4 0 5 -14 5 -34 -1 -26 -8 -40 -7 -64 5 -19 9 -34 11 -40 5 -5
-5 -14 -3 -22 7 -17 20 -30 19 -30 -4 0 -10 -9 -21 -20 -24 -24 -6 -60 2 -60
14 0 5 -16 0 -35 -11 -20 -11 -44 -20 -55 -20 -11 0 -29 -9 -40 -20 -16 -16
-28 -19 -54 -15 -35 7 -66 -12 -66 -41 0 -10 -8 -15 -22 -13 -13 1 -36 -3 -53
-10 -16 -7 -50 -12 -75 -11 -25 1 -48 1 -52 0 -5 -2 -11 -3 -15 -5 -5 -1 -17
-5 -27 -10 -11 -5 -36 -4 -58 2 -21 6 -41 6 -44 2 -7 -11 -47 -12 -59 -1 -21
18 -153 62 -168 57 -18 -8 -57 11 -57 27 0 6 -11 26 -25 44 -14 18 -25 39 -25
46 0 8 -4 18 -9 24 -5 5 -11 27 -13 49 -2 33 -7 41 -26 43 -13 2 -31 1 -40 -3
-16 -6 -16 -7 1 -16 20 -12 23 -31 3 -23 -7 3 -21 23 -29 46 -15 37 -19 40
-45 35 -18 -4 -37 0 -50 9 -19 13 -74 14 -62 1 3 -3 -7 -17 -22 -31 -16 -14
-28 -30 -28 -36 0 -5 -9 -10 -20 -10 -11 0 -20 -5 -20 -11 0 -6 -7 -9 -15 -5
-8 3 -18 -1 -22 -8 -5 -7 -18 -19 -31 -25 -13 -7 -21 -18 -19 -26 4 -9 -1 -11
-16 -8 -18 4 -19 3 -7 -6 12 -9 10 -11 -12 -11 -15 0 -29 4 -32 8 -3 5 -18 7
-34 4 -24 -3 -30 0 -35 19 -4 13 -2 26 4 30 11 7 -9 49 -23 49 -15 0 -30 -43
-24 -71 6 -33 -5 -43 -39 -35 -18 5 -24 14 -27 45 -4 48 -1 61 17 61 8 0 16
19 20 53 3 28 9 60 12 70 4 15 0 17 -24 11 -25 -7 -27 -6 -14 10 9 10 21 14
33 10 13 -4 24 1 33 13 20 25 18 36 -9 67 l-23 28 24 25 c14 13 26 23 28 21 9
-11 39 -105 37 -115 -2 -7 4 -13 13 -13 8 0 15 7 15 15 0 8 4 15 9 15 11 0 24
-34 26 -70 2 -14 3 -33 4 -42 1 -14 6 -15 32 -8 17 5 37 14 45 21 8 6 14 8 14
3 0 -4 10 2 23 14 13 12 27 19 30 15 4 -3 7 3 7 15 0 12 4 22 10 22 5 0 7 6 4
14 -3 8 6 33 20 55 15 23 23 41 19 41 -4 0 2 6 13 14 14 11 21 11 26 3 5 -8 8
-5 8 8 3 92 12 181 21 197 7 13 8 23 1 30 -7 7 -5 16 4 27 8 9 13 18 12 21 -1
3 5 16 12 30 8 14 15 47 17 74 2 27 10 60 18 72 8 13 15 34 15 48 0 58 110
126 204 126 17 0 38 5 46 10 13 8 12 11 -5 24 -11 9 -14 16 -7 16 6 0 12 7 12
15 0 8 4 15 9 15 16 0 1 54 -17 64 -9 5 -27 20 -40 33 -12 13 -27 23 -32 23
-6 0 -10 7 -10 15 0 8 -5 15 -10 15 -6 0 -18 18 -27 40 -10 22 -22 40 -27 40
-5 0 -17 6 -25 13 -9 8 -32 20 -51 27 -19 8 -38 18 -41 22 -3 5 -18 4 -33 -2
-20 -7 -41 -6 -79 4 -29 8 -77 18 -107 21 -30 3 -68 9 -85 12 -16 4 -33 6 -38
5 -4 -1 -21 10 -38 25 -17 16 -36 29 -42 29 -7 1 -17 2 -24 3 -25 2 -103 93
-115 134 -6 23 -11 46 -9 51 1 5 -5 16 -12 25 -18 20 -38 82 -42 129 -2 21 -6
72 -10 115 -4 47 -2 77 3 77 6 0 10 10 10 23 -1 26 39 172 54 200 7 15 7 22
-3 28 -8 5 -9 9 -4 9 6 0 19 15 29 34 10 19 24 37 32 40 19 7 54 85 54 120 0
24 -3 27 -10 16 -5 -8 -10 -10 -10 -4 0 5 5 15 12 22 6 6 13 55 15 119 1 59 3
113 4 118 0 6 -2 35 -6 65 -3 30 -6 70 -5 88 0 17 -3 32 -8 32 -17 0 -30 48
-25 91 8 71 9 74 17 87 4 6 4 17 1 22 -4 6 -2 16 3 23 5 7 13 28 17 47 7 31
23 74 45 120 3 8 6 39 6 67 -1 34 3 55 11 58 10 3 10 11 2 32 -6 15 -10 55 -9
88 4 126 3 135 -25 135 -14 0 -25 5 -25 10 0 6 7 10 16 10 8 0 22 16 30 35 13
32 13 36 -6 55 -12 12 -25 18 -30 15 -5 -3 -11 -1 -15 5 -4 6 -11 8 -16 5 -5
-4 -14 5 -21 19 -6 14 -15 26 -19 26 -4 0 -10 11 -13 25 -4 14 -13 25 -22 25
-12 0 -14 7 -9 31 6 28 5 30 -14 24 -17 -5 -24 0 -35 26 -8 19 -26 37 -45 45
-36 15 -39 27 -9 41 20 9 20 10 -13 23 -32 13 -53 34 -54 54 0 16 -149 86
-156 74 -5 -7 -16 -5 -37 8 -17 10 -29 21 -26 26 3 4 -7 9 -23 10 -15 1 -37 2
-48 3 -29 1 -67 16 -83 31 -8 8 -35 14 -64 14 -46 0 -49 1 -37 17 12 15 12 16
-4 10 -10 -4 -30 -7 -43 -7 -14 0 -22 -4 -19 -10 4 -6 -11 -10 -39 -10 -24 0
-51 -3 -60 -6 -9 -3 -16 -1 -16 4 0 6 12 13 28 16 15 2 -2 3 -38 2 -36 -2 -59
-1 -52 2 28 9 9 22 -33 22 -50 0 -56 10 -22 33 12 9 17 16 11 16 -6 1 -23 -10
-38 -24 -27 -25 -66 -34 -66 -14 0 5 -4 8 -8 5 -5 -3 -16 3 -24 14 -11 12 -24
17 -37 13 -23 -6 -28 6 -9 25 16 16 5 15 -38 -3 -19 -8 -41 -12 -48 -9 -8 3
-17 0 -21 -5 -3 -6 -11 -9 -16 -5 -5 3 -15 1 -22 -4 -7 -5 -21 -12 -32 -14
-11 -3 -29 -9 -40 -14 -18 -7 -19 -6 -5 11 14 17 13 18 -7 13 -27 -7 -30 4 -7
26 8 9 11 16 5 16 -17 0 -13 21 7 37 16 13 15 14 -5 10 -12 -3 -30 1 -41 9
-11 7 -22 10 -26 7 -3 -3 -6 1 -6 10 0 9 14 23 30 32 27 14 42 45 21 45 -4 0
-7 17 -6 38 3 52 3 52 23 46 12 -4 13 -3 4 3 -15 11 6 58 51 115 17 21 28 40
25 43 -3 3 -13 -6 -22 -20 -9 -14 -23 -25 -31 -25 -8 0 -19 -8 -25 -17 -9 -14
-10 -7 -6 31 3 27 10 54 16 61 5 6 7 15 3 18 -3 4 -1 12 5 19 6 7 11 18 11 23
0 6 7 17 14 26 8 8 16 24 19 35 3 10 9 28 14 38 6 15 4 17 -6 11 -10 -6 -12
-4 -7 9 4 10 2 26 -3 37 -8 15 -7 21 5 25 8 3 12 11 8 17 -10 17 -11 87 -1 87
6 0 8 15 5 33 -5 37 7 67 28 67 8 0 15 3 15 6 0 10 -42 44 -53 44 -6 0 -7 3
-4 6 3 4 -5 15 -18 26 -23 18 -23 19 -7 51 9 17 21 34 25 35 4 2 22 17 39 33
24 21 34 25 41 16 5 -7 6 -4 2 10 -4 16 2 27 28 47 32 24 124 126 114 126 -3
0 -38 -32 -78 -71 -88 -85 -137 -124 -146 -115 -6 6 55 70 74 77 8 3 9 18 4
47 -5 24 -4 45 1 48 4 3 8 11 7 17 -3 28 2 37 24 37 22 0 41 23 82 103 11 20
25 37 32 37 7 0 13 9 13 20 0 11 6 20 13 20 12 0 107 132 107 150 0 5 5 10 10
10 6 0 16 11 22 25 6 14 15 25 21 25 13 0 67 53 67 67 0 18 41 43 72 43 15 0
30 5 33 10 4 6 -10 10 -34 10 -43 0 -55 14 -21 23 11 3 23 13 27 24 9 24 32
47 40 40 11 -11 42 13 37 28 -4 10 0 15 10 15 24 0 66 30 66 46 0 8 4 14 9 14
5 0 13 9 16 20 3 11 12 20 20 20 7 0 21 7 30 16 15 15 15 14 9 -10 -9 -39 8
-31 34 15 15 26 29 39 38 35 8 -3 14 -1 14 4 0 6 -4 10 -10 10 -17 0 -11 25
10 43 11 9 20 26 20 37 0 11 5 20 11 20 7 0 9 -10 7 -25 -9 -42 14 -30 59 32
17 23 33 40 36 37 3 -3 8 4 12 15 3 12 10 19 15 16 5 -3 12 -1 15 5 4 6 15 8
24 5 12 -3 22 3 31 20 7 14 20 25 29 25 11 0 13 3 4 8 -8 5 2 16 31 32 24 13
42 28 40 34 -2 6 16 22 40 35 38 21 47 23 61 11 14 -11 16 -11 13 1 -2 8 4 14
12 14 8 0 20 9 25 20 6 11 20 25 33 31 12 6 19 14 16 17 -10 9 43 20 57 12 8
-5 2 -12 -17 -21 -22 -9 -24 -13 -10 -13 11 -1 34 10 51 24 18 13 35 22 38 19
9 -9 87 28 87 42 0 8 8 14 19 14 21 0 45 -23 34 -33 -3 -4 -1 -7 5 -7 7 0 12
5 12 11 0 5 4 8 9 5 5 -3 20 3 34 14 15 12 40 20 62 20 20 0 34 4 30 10 -3 5
-13 6 -23 3 -15 -6 -15 -4 2 15 18 21 55 29 69 15 4 -3 0 -15 -10 -25 -9 -10
-13 -21 -9 -26 5 -4 15 3 23 16 9 12 22 22 29 22 21 0 17 -17 -6 -23 -25 -6
-27 -27 -2 -27 24 0 46 16 38 28 -3 5 3 21 15 33 18 21 20 22 14 4 -5 -16 1
-14 27 11 18 17 53 36 78 43 59 17 93 33 103 49 5 7 18 10 33 6 17 -4 24 -2
24 8 0 7 14 19 30 25 17 6 28 7 24 2 -3 -5 6 -9 20 -9 18 0 24 -4 20 -15 -8
-19 10 -19 26 0 9 11 17 12 31 4 18 -9 19 -7 13 16 -5 20 -3 24 10 19 10 -4
16 -1 16 9 0 9 9 18 19 22 11 3 18 12 15 19 -3 7 2 19 11 26 8 7 15 17 15 23
0 14 49 57 66 57 18 0 18 -10 -2 -24 -20 -15 -26 -106 -7 -131 16 -23 28 -13
15 12 -11 21 2 111 18 127 13 13 13 29 0 21 -19 -12 -10 31 11 54 18 19 28 22
53 16 46 -11 69 -8 78 10 11 19 29 20 22 0 -6 -14 0 -16 68 -30 10 -2 21 1 24
6 3 5 20 9 39 9 18 0 35 5 37 10 2 7 14 7 36 -1 25 -8 36 -9 45 0 12 12 74 14
154 5 75 -9 55 -24 -24 -18 -37 3 -64 2 -60 -2 8 -9 112 -21 272 -33 167 -12
188 -17 175 -41 -16 -30 -12 -32 23 -13 24 12 59 17 142 18 61 1 88 -1 60 -4
l-50 -6 31 -11 c20 -8 36 -8 47 -2 15 8 17 4 17 -28 0 -36 0 -37 20 -19 11 10
16 23 13 29 -20 31 -9 44 42 50 29 3 65 2 81 -3 54 -18 112 -21 117 -7 6 15
59 29 102 27 21 -1 26 1 16 7 -9 7 5 15 50 31 35 11 70 21 80 21 9 0 22 7 29
15 7 8 17 15 22 15 6 0 8 -7 4 -15 -3 -10 1 -15 13 -15 11 0 21 6 24 13 2 6 8
9 12 5 4 -4 5 -15 1 -24 -5 -13 -18 -15 -68 -13 -52 3 -63 1 -66 -13 -3 -14 6
-16 65 -15 l68 2 4 -30 c4 -26 6 -22 15 24 9 42 16 55 31 57 17 3 20 -3 23
-34 3 -45 15 -58 33 -36 11 14 11 18 1 22 -10 3 -10 7 -1 18 9 11 9 14 -1 14
-17 0 -6 25 11 25 8 0 19 4 25 8 7 4 14 0 18 -8 3 -8 -3 -19 -12 -25 -12 -8
-14 -13 -4 -16 6 -3 12 -13 13 -22 0 -12 3 -11 9 5 10 25 74 43 92 25 7 -7 16
-4 29 9 10 10 18 22 18 27 -4 21 2 42 12 42 8 0 9 -11 5 -31z m-2331 -19 c3
-5 2 -10 -4 -10 -5 0 -13 5 -16 10 -3 6 -2 10 4 10 5 0 13 -4 16 -10z m455 0
c0 -13 -60 -13 -80 0 -11 7 -2 10 33 10 26 0 47 -4 47 -10z m812 -2 c-5 -5
-32 -11 -60 -13 -29 -2 -61 -7 -73 -10 -12 -4 -24 -2 -28 4 -5 7 -17 8 -38 2
-20 -6 -60 -5 -110 2 l-78 12 50 5 c90 10 347 8 337 -2z m411 5 c-7 -2 -19 -2
-25 0 -7 3 -2 5 12 5 14 0 19 -2 13 -5z m-315 -13 c21 0 4 -17 -22 -22 -18 -4
-26 0 -30 15 -4 15 -1 18 17 13 12 -3 28 -6 35 -6z m124 -21 c2 -7 12 -7 32 1
17 6 43 8 60 4 31 -7 31 -7 6 -15 -35 -10 -130 -11 -130 -1 0 20 26 29 32 11z
m-187 -9 c3 -6 -5 -10 -19 -10 -14 0 -28 5 -31 10 -3 6 5 10 19 10 14 0 28 -4
31 -10z m1077 -22 c-6 -6 -15 -8 -19 -4 -4 4 -1 11 7 16 19 12 27 3 12 -12z
m-7 -60 c-8 -37 -24 -70 -25 -50 0 6 1 13 3 15 1 2 -6 11 -15 21 -29 29 -25
35 35 45 5 0 5 -14 2 -31z m105 23 c0 -5 -7 -14 -15 -21 -13 -10 -15 -9 -15 9
0 12 6 21 15 21 8 0 15 -4 15 -9z m-2419 -74 c-8 -8 -11 -7 -11 2 0 8 -6 11
-15 7 -24 -9 -17 10 8 21 17 8 23 7 25 -4 2 -9 -1 -20 -7 -26z m-136 -17 c-3
-5 -11 -10 -16 -10 -6 0 -7 5 -4 10 3 6 11 10 16 10 6 0 7 -4 4 -10z m2629
-38 c8 -29 10 -30 23 -14 7 9 4 -8 -8 -38 -12 -30 -28 -75 -36 -100 -8 -25
-18 -53 -23 -62 -6 -10 -6 -26 0 -40 5 -13 9 -17 9 -9 1 8 3 12 6 10 2 -3 0
-18 -4 -35 -7 -23 -9 -25 -10 -7 -1 12 -4 23 -9 25 -13 6 -46 141 -50 205 l-4
62 39 20 c47 25 55 23 67 -17z m-2754 -17 c-7 -9 -15 -13 -17 -11 -7 7 7 26
19 26 6 0 6 -6 -2 -15z m3350 -17 c0 -18 -2 -20 -9 -8 -6 8 -7 18 -5 22 9 14
14 9 14 -14z m-706 -95 c9 -42 19 -104 21 -137 4 -58 4 -59 -7 -23 -6 20 -17
37 -25 37 -7 0 -13 5 -13 11 0 6 7 9 15 5 8 -3 15 -1 15 4 0 5 -11 12 -24 16
-38 9 -61 124 -25 124 5 0 9 9 9 20 0 45 18 15 34 -57z m726 -105 c0 -10 -4
-18 -10 -18 -5 0 -10 15 -10 33 0 24 3 28 10 17 5 -8 10 -23 10 -32z m44 -23
c3 -8 1 -15 -4 -15 -6 0 -10 7 -10 15 0 8 2 15 4 15 2 0 6 -7 10 -15z m-91
-47 c2 -7 1 -22 -4 -33 -6 -16 -8 -16 -8 -3 -1 9 -4 23 -7 32 -3 9 -2 16 4 16
5 0 12 -6 15 -12z m81 -37 c14 -26 14 -30 0 -42 -13 -10 -17 -10 -25 2 -14 23
-10 69 7 69 2 0 10 -13 18 -29z m-413 -28 c-9 -16 -10 -16 -11 -1 0 9 3 25 7
35 7 16 8 17 11 1 2 -10 -1 -25 -7 -35z m459 37 c0 -5 -2 -10 -4 -10 -3 0 -8
5 -11 10 -3 6 -1 10 4 10 6 0 11 -4 11 -10z m-483 -102 c-3 -8 -6 -5 -6 6 -1
11 2 17 5 13 3 -3 4 -12 1 -19z m-3 -49 c-3 -5 -10 -7 -15 -3 -5 3 -7 10 -3
15 3 5 10 7 15 3 5 -3 7 -10 3 -15z m-52 -91 c-7 -7 -12 -8 -12 -2 0 14 12 26
19 19 2 -3 -1 -11 -7 -17z m478 -57 c0 -5 8 -8 17 -7 26 2 27 -50 1 -74 -12
-11 -23 -18 -26 -15 -10 10 -13 105 -3 105 6 0 11 -4 11 -9z m40 -120 c0 -6
-4 -13 -10 -16 -5 -3 -10 1 -10 9 0 9 5 16 10 16 6 0 10 -4 10 -9z m-130 -52
c0 -18 7 -33 20 -41 26 -16 25 -25 -2 -39 -17 -9 -20 -9 -16 3 3 8 0 22 -8 33
-16 22 -19 89 -4 80 6 -3 10 -19 10 -36z m36 -114 c-4 -14 -2 -25 4 -25 5 0
10 -9 10 -21 0 -31 -23 -17 -34 20 -7 25 -6 35 5 42 21 13 22 12 15 -16z m-17
-175 c0 -10 -3 -8 -9 5 -12 27 -12 43 0 25 5 -8 9 -22 9 -30z m302 -164 c12
-21 26 -33 34 -30 10 4 12 0 8 -15 -7 -26 -14 -26 -34 2 -40 56 -51 77 -40 77
7 0 21 -15 32 -34z m-92 -15 c6 -10 7 -21 4 -25 -9 -8 -33 14 -33 30 0 20 18
17 29 -5z m0 -47 c11 -14 23 -34 26 -45 4 -10 14 -19 24 -19 16 0 61 -75 61
-101 0 -6 16 -38 37 -70 20 -33 34 -62 31 -64 -3 -3 -19 9 -37 25 -17 17 -36
28 -41 25 -5 -3 -12 5 -15 18 -4 14 -24 42 -46 63 -21 21 -39 46 -39 55 0 9
-7 22 -15 29 -8 7 -15 19 -15 27 0 8 -4 12 -9 8 -5 -3 -13 0 -17 6 -5 8 -3 9
5 4 9 -5 12 -1 11 11 -7 59 7 69 39 28z m39 -19 c6 -14 8 -25 3 -25 -4 0 -13
11 -19 25 -6 14 -8 25 -3 25 4 0 13 -11 19 -25z m-5516 -27 c-7 -7 -12 -8 -12
-2 0 14 12 26 19 19 2 -3 -1 -11 -7 -17z m5631 -17 c21 -36 22 -47 2 -31 -23
19 -19 -12 5 -43 12 -15 16 -28 11 -32 -11 -6 -19 8 -45 68 -8 21 -10 35 -5
31 7 -4 9 1 4 15 -9 31 8 26 28 -8z m-3 -252 c0 -6 -4 -7 -10 -4 -5 3 -10 11
-10 16 0 6 5 7 10 4 6 -3 10 -11 10 -16z m44 -54 c3 -8 1 -15 -3 -15 -5 0 -11
7 -15 15 -3 8 -1 15 3 15 5 0 11 -7 15 -15z m26 -245 c0 -5 -4 -10 -10 -10 -5
0 -10 5 -10 10 0 6 5 10 10 10 6 0 10 -4 10 -10z m-5927 -37 c9 -8 -12 -33
-28 -33 -8 0 -11 8 -8 20 5 20 23 26 36 13z m6787 -8 c0 -8 -2 -15 -4 -15 -2
0 -6 7 -10 15 -3 8 -1 15 4 15 6 0 10 -7 10 -15z m150 -273 c0 -15 -2 -15 -10
-2 -13 20 -13 33 0 25 6 -3 10 -14 10 -23z m-165 -108 c23 -61 11 -69 -15 -10
-23 54 -23 56 -11 56 4 0 16 -21 26 -46z m41 -115 c7 -21 10 -39 7 -39 -6 0
-33 67 -33 81 0 22 14 -1 26 -42z m-536 -439 c0 -5 -2 -10 -4 -10 -3 0 -8 5
-11 10 -3 6 -1 10 4 10 6 0 11 -4 11 -10z m-6363 -46 c-3 -3 -12 -4 -19 -1 -8
3 -5 6 6 6 11 1 17 -2 13 -5z m7540 -66 c-3 -8 -6 -5 -6 6 -1 11 2 17 5 13 3
-3 4 -12 1 -19z m-7345 -430 c30 -9 41 -9 47 0 5 9 25 8 81 -4 40 -8 79 -13
86 -10 7 3 16 1 18 -3 3 -5 45 -11 93 -15 48 -4 101 -13 117 -20 17 -7 36 -11
43 -9 6 2 14 -1 18 -6 3 -6 15 -11 26 -11 10 0 28 -9 39 -20 11 -11 20 -18 20
-15 0 3 8 -3 18 -12 10 -10 34 -32 54 -48 19 -17 33 -36 30 -43 -5 -15 25 -82
37 -82 12 0 23 -67 16 -90 -4 -11 -13 -20 -21 -20 -8 0 -13 -5 -11 -12 2 -12
-13 -17 -141 -41 -40 -8 -75 -17 -79 -21 -4 -3 24 -6 63 -5 92 2 160 -10 209
-34 45 -23 57 -36 50 -54 -3 -8 4 -13 17 -13 20 0 21 -2 7 -15 -8 -9 -44 -20
-80 -25 -35 -6 -76 -15 -90 -21 -14 -6 -46 -12 -70 -14 -24 -2 -89 -9 -144
-15 -55 -7 -109 -13 -120 -14 -11 -2 -29 -7 -40 -13 -11 -6 -35 -13 -53 -17
-31 -5 -84 -25 -124 -47 -10 -5 -26 -9 -37 -9 -30 0 -109 -39 -146 -71 -19
-17 -39 -28 -44 -24 -6 3 -28 -6 -49 -20 -32 -21 -44 -24 -65 -16 -22 8 -47
38 -47 54 0 3 22 29 50 58 27 29 48 54 46 57 -7 6 -116 -74 -168 -123 -36 -34
-54 -44 -68 -40 -11 4 -20 2 -20 -4 0 -6 -10 -15 -21 -22 -15 -8 -19 -8 -15 0
4 6 2 11 -3 11 -6 0 -11 -5 -11 -11 0 -5 -4 -8 -9 -5 -5 4 -12 0 -14 -6 -3 -7
-3 2 0 20 4 24 -1 42 -20 71 -17 26 -28 59 -33 102 -3 35 -11 69 -16 76 -5 7
-8 27 -7 45 2 18 -3 43 -9 55 -7 13 -12 40 -12 60 0 21 -1 61 -3 88 -1 36 2
49 11 48 15 -4 16 14 1 19 -17 6 0 34 29 45 l27 11 -32 7 -33 7 32 44 c17 24
36 44 42 44 6 0 4 4 -4 10 -11 7 -9 11 13 19 15 6 32 22 37 36 7 20 17 25 42
25 l33 1 -25 14 -25 14 34 1 c29 0 32 2 21 15 -11 13 -8 15 16 16 16 1 44 1
62 0 17 -2 32 1 32 6 0 38 206 67 292 41z m7826 -474 c20 -21 21 -27 12 -70
-13 -57 -6 -67 17 -25 23 40 37 40 29 0 -5 -26 -4 -29 8 -20 7 6 16 24 20 39
3 15 14 38 25 52 20 25 20 25 35 5 9 -11 13 -26 11 -32 -6 -16 -2 -16 42 2 46
19 53 19 27 -3 -12 -10 -25 -28 -28 -40 -7 -20 -19 -26 -53 -25 -7 1 -11 -3
-8 -7 5 -8 -122 -120 -136 -120 -13 0 -11 9 6 26 13 13 12 20 -12 57 -14 23
-36 56 -48 72 -28 37 -37 74 -29 114 6 30 7 30 33 14 14 -9 36 -27 49 -39z
m157 27 c3 -5 1 -12 -5 -16 -5 -3 -10 1 -10 9 0 18 6 21 15 7z m159 -108 c24
-69 22 -74 -21 -52 -21 10 -48 19 -61 19 -20 0 -22 4 -16 23 3 12 10 23 14 25
4 1 16 9 26 17 31 23 41 18 58 -32z m-436 -109 c7 -14 16 -23 21 -20 5 3 15
-2 22 -11 12 -14 12 -16 -1 -11 -13 5 -15 -1 -12 -27 2 -18 -1 -36 -7 -39 -7
-5 -9 -1 -5 8 3 9 1 16 -5 16 -6 0 -11 7 -11 15 0 8 -9 29 -19 47 -19 30 -19
48 -2 48 4 0 13 -12 19 -26z m-6963 -84 c5 -8 11 -7 21 0 21 18 71 -22 77 -62
2 -18 1 -34 -3 -36 -4 -2 -6 -12 -3 -22 3 -11 1 -20 -5 -20 -6 0 -14 -9 -17
-20 -7 -21 -53 -50 -80 -50 -13 0 -15 8 -9 49 4 32 1 67 -10 104 -9 30 -16 58
-16 61 0 10 39 7 45 -4z m-210 -46 l0 -39 -46 -3 c-44 -3 -47 -1 -52 25 -8 37
24 65 67 60 29 -3 31 -6 31 -43z m7255 24 c0 -18 -2 -20 -9 -8 -6 8 -7 18 -5
22 9 14 14 9 14 -14z m-760 -39 c0 -11 -4 -18 -10 -14 -5 3 -7 12 -3 20 7 21
13 19 13 -6z m-6084 -54 c-4 -14 -11 -25 -16 -25 -10 0 -4 43 8 65 9 15 14
-14 8 -40z m7446 -9 c10 -14 15 -34 12 -47 -3 -13 -6 -49 -8 -79 -3 -62 -17
-95 -36 -88 -19 6 -25 219 -7 230 17 11 20 10 39 -16z m-7797 -186 c-7 -23 33
-36 42 -14 3 8 12 13 19 10 7 -3 26 1 41 9 15 8 34 15 41 15 22 0 9 -35 -14
-38 -12 -2 -47 -27 -78 -57 -34 -32 -63 -52 -72 -48 -8 3 -14 0 -14 -7 0 -7
-8 -19 -17 -26 -17 -13 -17 -14 2 -8 11 4 28 14 37 22 10 8 24 12 33 9 8 -4
15 -2 15 3 0 6 17 26 37 45 35 33 38 34 45 15 9 -24 20 -25 58 -5 35 18 35 17
15 -21 -8 -16 -15 -39 -15 -52 0 -19 -4 -22 -20 -17 -15 5 -21 0 -26 -22 -4
-15 -13 -35 -21 -44 -8 -9 -13 -23 -11 -30 2 -9 -4 -13 -14 -11 -12 2 -18 -4
-18 -18 0 -11 -4 -20 -9 -20 -15 0 -22 -32 -10 -46 6 -8 8 -14 3 -14 -12 0
-35 -51 -28 -61 3 -5 12 -9 20 -9 8 0 12 -5 9 -10 -4 -6 -10 -8 -15 -5 -10 6
-34 -51 -25 -64 8 -14 -8 -14 -22 0 -8 8 -13 8 -17 0 -4 -6 -3 -11 2 -11 5 0
6 -20 2 -44 -6 -44 -28 -76 -50 -76 -7 0 -10 -12 -7 -34 4 -29 2 -33 -12 -28
-14 5 -14 3 -3 -10 14 -17 0 -34 -18 -23 -13 8 -13 -8 0 -21 13 -13 -19 -104
-34 -98 -6 2 -16 -7 -22 -20 -9 -19 -9 -26 1 -30 7 -2 16 5 19 17 6 22 6 22
22 2 13 -18 13 -21 -2 -32 -10 -7 -28 -10 -43 -6 -23 6 -25 4 -13 -10 8 -9 11
-21 7 -27 -3 -5 -2 -10 3 -10 5 0 17 -18 28 -39 10 -22 27 -42 36 -44 15 -4
15 -9 5 -31 -13 -27 -31 -34 -43 -15 -4 8 -10 5 -18 -7 -13 -23 -13 -25 -15
-69 -1 -25 -6 -35 -18 -35 -13 0 -12 -3 5 -19 12 -10 22 -23 22 -28 0 -6 14
-16 31 -23 17 -7 37 -19 45 -27 12 -12 10 -18 -14 -38 -15 -14 -21 -25 -14
-25 14 0 17 -30 2 -30 -5 0 -10 -5 -10 -11 0 -6 7 -8 15 -5 10 3 18 -1 22 -12
4 -9 11 -20 17 -24 8 -5 8 -8 0 -8 -7 0 -14 -7 -17 -14 -4 -11 -1 -13 10 -9
13 5 15 2 9 -13 -4 -10 -9 -39 -10 -64 -1 -25 -12 -67 -25 -93 -13 -26 -20
-54 -17 -62 3 -8 0 -15 -7 -15 -13 0 -37 -65 -37 -99 0 -11 5 -23 11 -26 6 -4
8 -13 5 -21 -3 -8 -2 -14 3 -14 4 0 8 -7 8 -14 0 -11 -5 -13 -19 -5 -12 7 -18
6 -18 -2 0 -6 14 -16 30 -22 33 -12 42 -32 11 -24 -13 3 -22 -3 -30 -20 -12
-25 -7 -43 10 -43 6 0 7 6 3 13 -6 9 -4 9 8 -1 9 -7 28 -11 42 -8 27 5 38 -17
14 -28 -10 -5 -10 -7 0 -12 6 -3 12 -13 12 -21 0 -11 7 -14 25 -9 27 7 35 -8
9 -18 -8 -3 -12 -10 -9 -16 3 -5 -3 -10 -14 -10 -12 0 -21 6 -21 13 0 24 -38
14 -43 -11 -3 -18 1 -26 21 -33 20 -8 29 -7 37 3 25 31 82 50 72 24 -3 -7 3
-29 14 -47 l20 -34 -26 30 c-26 31 -33 23 -15 -17 13 -28 60 -52 74 -38 20 20
26 9 9 -17 -16 -25 -16 -27 -1 -15 14 12 20 11 37 0 13 -10 17 -18 11 -28 -20
-32 21 -40 70 -15 22 11 27 19 22 37 -5 22 -4 22 28 -5 18 -15 45 -30 59 -33
24 -5 26 -9 26 -59 0 -30 -4 -57 -8 -61 -12 -12 -8 -37 11 -57 16 -19 16 -20
-5 -15 -13 4 -23 2 -23 -3 0 -5 -5 -9 -11 -9 -6 0 -8 8 -4 19 3 11 0 21 -8 24
-9 3 -13 -4 -13 -24 0 -17 5 -29 13 -29 7 0 13 -4 13 -10 0 -5 -5 -10 -11 -10
-7 0 -9 -14 -5 -40 5 -39 -6 -62 -35 -72 -6 -2 -11 -16 -11 -31 0 -15 -5 -30
-10 -33 -5 -3 -6 -14 -3 -25 4 -12 2 -19 -7 -19 -7 0 -20 -22 -29 -48 -9 -26
-19 -54 -23 -63 -4 -10 -1 -23 8 -31 11 -12 12 -18 3 -28 -9 -10 -9 -11 1 -6
7 5 12 0 13 -11 1 -10 3 -29 4 -43 3 -25 -29 -80 -46 -80 -5 0 -9 7 -9 16 0
10 -9 5 -26 -15 -14 -17 -32 -31 -40 -31 -9 0 -13 -4 -10 -9 4 -5 -2 -7 -12
-4 -21 5 -57 -31 -47 -47 4 -7 16 -9 28 -6 15 4 17 2 8 -7 -13 -13 -15 -31 -2
-22 6 3 9 -7 8 -22 -1 -19 2 -27 11 -25 8 1 11 -1 9 -5 -11 -18 14 -135 33
-155 13 -15 17 -25 10 -33 -7 -8 -4 -20 10 -38 11 -14 20 -29 20 -35 0 -5 8
-17 19 -26 10 -9 22 -35 25 -57 4 -23 13 -48 21 -56 8 -8 15 -23 15 -33 0 -10
7 -31 15 -46 8 -16 15 -40 15 -54 0 -14 7 -38 15 -54 17 -33 19 -39 6 -32 -5
4 -11 0 -14 -6 -3 -9 -14 -3 -31 16 -14 16 -26 26 -26 22 0 -13 -30 22 -30 36
-1 9 -5 7 -14 -5 -12 -15 -14 -13 -20 23 -3 22 -12 40 -19 40 -6 0 -22 22 -35
48 -25 53 -72 249 -72 300 0 18 -6 48 -14 66 -11 26 -11 37 -3 46 9 10 9 11 0
6 -21 -12 -14 8 7 22 11 7 20 18 19 25 0 9 -2 9 -6 0 -2 -7 -9 -13 -15 -13 -6
0 -7 7 -4 15 3 9 2 23 -3 33 -5 9 -12 26 -16 36 -3 10 -7 17 -10 15 -11 -12
-15 -172 -5 -234 20 -135 43 -250 56 -280 18 -43 21 -63 9 -66 -5 -1 -27 31
-47 72 -21 41 -43 80 -49 88 -9 10 -9 15 2 22 11 7 12 11 1 17 -8 5 -15 36
-17 78 -3 38 -5 71 -6 74 -1 3 -1 9 0 14 1 5 -3 12 -8 16 -6 3 -12 15 -14 25
-1 11 -6 26 -10 33 -5 6 -4 12 2 12 6 0 8 7 5 15 -4 8 -12 15 -20 15 -7 0 -17
7 -22 16 -5 9 -15 14 -21 10 -6 -4 -8 -12 -5 -18 4 -7 2 -8 -5 -4 -6 4 -9 16
-6 25 3 10 -1 24 -10 31 -23 19 -18 39 9 36 18 -2 22 1 19 15 -6 20 -40 32
-47 15 -4 -11 -10 27 -7 50 1 7 -5 14 -13 17 -9 4 -12 14 -9 25 3 14 -4 26
-25 41 -22 15 -29 27 -25 41 3 11 0 20 -6 20 -5 0 -8 7 -5 15 4 8 1 15 -5 15
-14 0 -15 37 -1 45 18 11 10 25 -14 25 -26 0 -30 8 -41 77 -4 28 -15 50 -31
62 -16 13 -25 31 -27 53 -1 18 -6 36 -11 40 -6 4 -4 14 5 24 11 13 11 18 2 21
-7 3 -13 11 -13 19 0 22 -16 17 -39 -12 -22 -28 -28 -25 -12 5 6 10 7 28 4 40
-4 17 -8 19 -19 10 -21 -17 -29 -3 -10 16 17 18 22 50 6 40 -6 -4 -8 -10 -5
-15 3 -5 1 -11 -5 -15 -6 -3 -13 0 -16 8 -3 9 -16 18 -30 21 -13 4 -24 10 -24
15 0 13 28 22 35 11 4 -6 1 -10 -6 -10 -7 0 -9 -3 -6 -6 4 -4 13 -1 21 5 8 7
20 10 26 6 7 -4 6 5 -3 21 -8 16 -12 35 -10 42 6 15 -2 15 -28 2 -13 -7 -19
-7 -19 0 0 5 5 10 11 10 8 0 9 4 0 13 -6 8 -9 17 -6 21 3 3 -1 2 -7 -4 -7 -5
-18 -10 -25 -10 -11 0 -11 5 -3 20 6 11 9 33 8 50 -2 27 -6 30 -24 26 -18 -5
-21 -2 -17 14 4 14 0 20 -11 20 -9 0 -13 6 -10 14 3 7 -2 20 -10 29 -9 9 -16
22 -16 29 -1 22 -25 47 -46 45 -13 -1 -18 3 -16 16 2 9 -2 17 -8 17 -7 0 -9 8
-5 19 3 10 -1 23 -9 30 -13 11 -16 8 -22 -13 -10 -42 -24 -19 -21 37 2 37 -2
55 -13 64 -13 10 -19 35 -20 99 -1 27 -30 56 -30 30 0 -9 -5 -16 -10 -16 -7 0
-7 6 0 20 7 13 7 20 1 20 -7 0 -7 10 0 28 7 20 6 37 -2 58 -7 16 -13 32 -14
37 -2 4 -3 8 -5 10 -10 13 -5 46 11 68 21 31 23 39 9 39 -5 0 -10 -7 -10 -15
0 -9 -7 -18 -16 -22 -20 -8 -36 17 -22 34 6 7 8 22 5 33 -3 11 -1 18 4 14 5
-3 9 2 9 11 0 9 -4 14 -8 11 -12 -7 -39 27 -34 42 2 7 0 12 -5 12 -4 0 -8 16
-9 35 0 19 2 35 6 35 8 0 5 63 -4 78 -5 8 2 22 19 38 19 17 24 30 20 45 -4 11
-1 27 7 36 11 13 9 18 -10 31 -16 11 -22 24 -22 52 0 28 6 41 22 52 20 13 21
17 9 32 -10 12 -17 14 -25 6 -5 -5 -14 -10 -18 -10 -13 0 -9 17 7 34 9 8 15
19 14 23 -4 21 2 44 9 39 11 -7 41 53 44 89 2 19 9 30 18 30 10 0 14 9 12 25
-2 20 0 22 8 10 5 -8 10 -12 10 -7 0 4 -1 8 -2 10 -4 5 23 47 31 47 5 0 8 -17
7 -37 -1 -21 3 -41 8 -45 7 -5 7 -8 -1 -8 -7 0 -13 -11 -13 -25 0 -33 11 -32
46 8 42 46 41 72 -1 99 -33 22 -45 38 -27 38 4 0 7 15 7 33 1 17 3 43 5 56 3
14 0 26 -7 28 -7 3 -13 -2 -13 -11 0 -25 -15 -26 -16 0 -1 13 2 24 6 24 5 0
11 13 15 30 4 16 11 33 17 36 7 4 8 2 4 -4 -11 -18 3 -14 26 8 12 11 34 20 49
20 19 0 36 11 56 37 23 28 36 36 61 35 18 0 35 5 39 12 13 20 86 74 113 81 14
4 28 12 32 18 8 14 36 -14 30 -31 -2 -6 1 -12 7 -12 6 0 11 5 11 11 0 7 10 9
25 5 22 -6 25 -3 25 18 0 18 4 24 15 20 8 -4 15 -1 15 5 0 7 16 28 37 48 36
36 36 36 29 9 -10 -41 3 -50 30 -21 13 14 24 29 24 33 0 3 12 17 28 29 15 13
23 23 17 22 -23 -3 -36 2 -30 11 3 5 -7 5 -25 -1 -32 -12 -38 -23 -17 -33 6
-4 2 -4 -10 -2 -13 2 -25 1 -28 -4 -3 -4 -15 -10 -27 -13 -22 -6 -22 -5 -4 8
31 23 -6 19 -51 -5 -21 -11 -54 -20 -74 -20 -20 0 -58 -7 -85 -15 -27 -8 -62
-15 -79 -14 -29 0 -29 1 12 17 54 22 60 29 38 46 -16 12 -17 16 -6 30 11 14
11 16 -3 16 -13 0 -14 3 -4 19 15 24 36 16 44 -15 3 -13 10 -21 15 -18 5 3 9
-2 9 -10 0 -9 10 -18 23 -21 26 -7 186 33 276 69 78 31 74 31 66 6 -3 -11 -2
-28 4 -37 11 -20 9 -21 26 32 2 8 11 12 20 9 18 -7 20 7 3 25 -11 10 -9 12 7
9 12 -2 21 3 21 12 3 29 4 31 14 25 6 -4 8 -15 5 -25z m6371 -1 c18 -20 18
-21 1 -34 -10 -7 -19 -22 -20 -34 -3 -45 -17 -18 -17 34 0 60 7 66 36 34z
m-6336 -489 c0 -5 -5 -10 -11 -10 -5 0 -7 5 -4 10 3 6 8 10 11 10 2 0 4 -4 4
-10z m-120 -370 c0 -5 -5 -10 -11 -10 -5 0 -7 5 -4 10 3 6 8 10 11 10 2 0 4
-4 4 -10z m40 -80 c0 -5 -5 -10 -11 -10 -5 0 -7 5 -4 10 3 6 8 10 11 10 2 0 4
-4 4 -10z m-35 -437 c-2 -27 -20 -31 -23 -5 -2 14 2 22 11 22 7 0 13 -8 12
-17z m39 -598 c-4 -8 -11 -12 -16 -9 -6 4 -5 10 3 15 19 12 19 11 13 -6z m-17
-41 c-9 -10 -38 16 -31 28 4 6 13 4 22 -6 9 -8 13 -19 9 -22z m-582 -334 c3
-5 2 -10 -4 -10 -5 0 -13 5 -16 10 -3 6 -2 10 4 10 5 0 13 -4 16 -10z m45 -40
c0 -5 -4 -10 -10 -10 -5 0 -10 5 -10 10 0 6 5 10 10 10 6 0 10 -4 10 -10z
m1250 -130 c8 -16 8 -18 -4 -14 -17 6 -30 34 -16 34 5 0 14 -9 20 -20z m-1170
-10 c0 -5 -4 -10 -10 -10 -5 0 -10 5 -10 10 0 6 5 10 10 10 6 0 10 -4 10 -10z
m820 -80 c0 -5 -4 -10 -10 -10 -5 0 -10 5 -10 10 0 6 5 10 10 10 6 0 10 -4 10
-10z m330 -30 c0 -5 -5 -10 -11 -10 -5 0 -7 5 -4 10 3 6 8 10 11 10 2 0 4 -4
4 -10z m308 -238 c15 -19 16 -42 1 -42 -15 0 -35 22 -43 48 -6 18 -4 21 11 16
10 -4 24 -14 31 -22z m-755 -16 c4 -10 1 -13 -8 -9 -8 3 -12 9 -9 14 7 12 11
11 17 -5z m1447 -2156 c0 -5 -5 -10 -11 -10 -5 0 -7 5 -4 10 3 6 8 10 11 10 2
0 4 -4 4 -10z m3125 -303 c0 -19 -4 -22 -29 -19 l-29 5 24 18 c31 24 34 24 34
-4z m-55 -51 c0 -2 -7 -9 -15 -16 -13 -11 -14 -10 -9 4 5 14 24 23 24 12z
m-3120 -156 c0 -5 -2 -10 -4 -10 -3 0 -8 5 -11 10 -3 6 -1 10 4 10 6 0 11 -4
11 -10z m90 -9 c0 -3 -9 -12 -19 -18 -15 -10 -22 -9 -31 2 -10 12 -9 15 4 15
9 0 16 4 16 10 0 5 7 7 15 4 8 -4 15 -9 15 -13z m86 -37 c-4 -9 -9 -15 -11
-12 -3 3 -3 13 1 22 4 9 9 15 11 12 3 -3 3 -13 -1 -22z m-176 -18 c0 -2 -7 -9
-15 -16 -13 -11 -14 -10 -9 4 5 14 24 23 24 12z m455 -266 c3 -5 -3 -10 -15
-10 -12 0 -18 5 -15 10 3 6 10 10 15 10 5 0 12 -4 15 -10z m995 -742 c0 -18
-2 -20 -9 -8 -6 8 -7 18 -5 22 9 14 14 9 14 -14z m4630 -1538 c0 -5 -4 -10
-10 -10 -5 0 -10 5 -10 10 0 6 5 10 10 10 6 0 10 -4 10 -10z m-3984 -860 c0
-13 -7 -20 -18 -20 -22 0 -22 4 -2 24 20 20 20 20 20 -4z m292 -806 c12 -4 22
-11 22 -16 0 -10 -39 -1 -54 13 -12 11 -1 11 32 3z m222 -154 c0 -5 -2 -10 -4
-10 -3 0 -8 5 -11 10 -3 6 -1 10 4 10 6 0 11 -4 11 -10z m-440 -40 c0 -5 -4
-10 -10 -10 -5 0 -10 5 -10 10 0 6 5 10 10 10 6 0 10 -4 10 -10z m221 -31 c5
-11 8 -19 7 -20 -5 -1 -43 -10 -56 -13 -8 -1 -17 -8 -21 -15 -13 -21 -41 -1
-41 29 0 16 -3 30 -7 33 -5 2 -3 2 4 1 6 -1 24 1 40 5 36 10 61 3 74 -20z
m-209 -1 c-7 -7 -12 -8 -12 -2 0 14 12 26 19 19 2 -3 -1 -11 -7 -17z m528 -78
c0 -5 -7 -10 -15 -10 -8 0 -15 5 -15 10 0 6 7 10 15 10 8 0 15 -4 15 -10z
m5660 -424 c0 -11 -19 -15 -25 -6 -3 5 1 10 9 10 9 0 16 -2 16 -4z m-6168
-1678 c9 -7 28 -34 42 -59 21 -40 24 -53 18 -90 l-8 -44 -27 53 c-15 28 -32
52 -38 52 -16 0 -59 51 -59 71 0 28 44 38 72 17z m130 -89 c22 -41 23 -88 4
-114 -13 -18 -15 -17 -21 20 -3 22 -10 59 -16 82 -12 53 -11 55 4 51 6 -2 20
-20 29 -39z m-172 -44 c0 -8 -7 -15 -15 -15 -26 0 -18 20 13 29 1 1 2 -6 2
-14z m-74 -10 c16 -13 17 -16 4 -25 -22 -15 -29 -12 -23 9 3 13 -1 21 -14 24
-13 3 -14 5 -2 6 8 0 24 -6 35 -14z m-144 -21 c34 -18 38 -32 20 -71 -14 -28
-21 -33 -52 -33 -47 0 -60 15 -60 65 0 66 21 75 92 39z m298 -98 c-6 -19 -23
-42 -37 -51 -29 -19 -29 -19 12 52 32 56 44 55 25 -1z m-201 -195 c11 -7 10
-10 -6 -15 -19 -6 -73 8 -73 19 0 8 64 5 79 -4z"/>
<path d="M9550 18154 c0 -8 5 -12 10 -9 6 4 8 11 5 16 -9 14 -15 11 -15 -7z"/>
<path d="M11178 18133 c7 -3 16 -2 19 1 4 3 -2 6 -13 5 -11 0 -14 -3 -6 -6z"/>
<path d="M11505 18100 c-3 -5 -1 -10 4 -10 6 0 11 5 11 10 0 6 -2 10 -4 10 -3
0 -8 -4 -11 -10z"/>
<path d="M10150 18050 c-8 -5 -10 -10 -5 -10 6 0 17 5 25 10 8 5 11 10 5 10
-5 0 -17 -5 -25 -10z"/>
<path d="M9590 17969 c0 -5 5 -7 10 -4 6 3 10 8 10 11 0 2 -4 4 -10 4 -5 0
-10 -5 -10 -11z"/>
<path d="M11525 17810 c3 -5 8 -10 11 -10 2 0 4 5 4 10 0 6 -5 10 -11 10 -5 0
-7 -4 -4 -10z"/>
<path d="M11730 17252 c0 -5 10 -17 21 -28 22 -19 22 -19 10 3 -12 24 -31 39
-31 25z"/>
<path d="M7899 17203 c-13 -16 -12 -17 4 -4 16 13 21 21 13 21 -2 0 -10 -8
-17 -17z"/>
<path d="M12250 17204 c0 -8 5 -12 10 -9 6 3 10 10 10 16 0 5 -4 9 -10 9 -5 0
-10 -7 -10 -16z"/>
<path d="M12220 17190 c0 -11 5 -20 10 -20 6 0 10 9 10 20 0 11 -4 20 -10 20
-5 0 -10 -9 -10 -20z"/>
<path d="M11961 16874 c0 -11 3 -14 6 -6 3 7 2 16 -1 19 -3 4 -6 -2 -5 -13z"/>
<path d="M12320 16767 c0 -15 29 -77 35 -77 3 0 2 6 -1 13 -3 8 -6 27 -7 42
-2 29 -27 49 -27 22z"/>
<path d="M7380 16640 c0 -5 5 -10 10 -10 6 0 10 5 10 10 0 6 -4 10 -10 10 -5
0 -10 -4 -10 -10z"/>
<path d="M12373 16640 c2 -8 9 -31 15 -50 6 -19 14 -46 17 -60 2 -14 9 -32 15
-40 9 -13 11 -13 19 0 7 10 4 24 -10 46 -10 17 -19 40 -19 52 0 11 -9 30 -21
43 -11 13 -19 17 -16 9z"/>
<path d="M12459 16453 c6 -10 20 -29 31 -43 l21 -25 -7 25 c-7 28 -32 60 -46
60 -5 0 -4 -8 1 -17z"/>
<path d="M7069 16383 c-13 -16 -12 -17 4 -4 16 13 21 21 13 21 -2 0 -10 -8
-17 -17z"/>
<path d="M10950 16139 c-11 -6 -8 -9 13 -9 46 0 30 -19 -24 -26 -32 -4 -46
-10 -38 -15 20 -12 4 -22 -22 -14 -15 5 -18 10 -9 15 8 5 8 9 -4 13 -9 4 -16
2 -16 -4 0 -8 -15 -9 -44 -5 -34 5 -46 4 -53 -8 -9 -17 -41 -19 -148 -10 -44
3 -65 2 -57 -4 11 -7 10 -10 -3 -16 -9 -3 -28 -6 -41 -6 -14 0 -50 -12 -80
-26 -33 -16 -72 -26 -99 -26 -25 0 -47 -4 -51 -9 -3 -5 -16 -9 -29 -9 -13 0
-45 -9 -71 -21 -27 -11 -70 -25 -96 -30 -30 -7 -48 -16 -48 -25 0 -17 -26 -19
-36 -3 -3 6 0 15 7 20 8 5 9 9 3 9 -6 0 -24 -11 -40 -25 -15 -13 -42 -30 -59
-36 -16 -7 -39 -19 -49 -28 -13 -11 -20 -12 -23 -5 -2 7 -13 9 -25 6 -18 -4
-19 -3 -9 17 11 19 7 18 -30 -8 -23 -17 -48 -31 -55 -31 -7 0 -20 -8 -30 -17
-11 -12 -19 -14 -21 -6 -4 12 -57 -9 -68 -28 -4 -5 -14 -9 -24 -9 -10 0 -52
-27 -94 -60 -41 -33 -78 -60 -82 -60 -11 0 -95 -88 -95 -100 0 -5 -11 -17 -24
-25 -13 -9 -35 -32 -48 -50 -12 -19 -27 -35 -31 -35 -12 0 -46 -42 -47 -57 0
-21 -95 -119 -111 -115 -12 3 -12 2 0 -6 12 -9 12 -13 2 -26 -7 -8 -11 -20 -9
-27 2 -6 10 2 18 18 8 15 25 38 37 50 l22 21 -6 -31 c-3 -18 -10 -36 -14 -42
-10 -10 -12 -145 -3 -169 3 -9 10 -16 15 -16 5 0 4 12 -1 26 -6 14 -7 44 -4
67 6 46 42 132 51 124 3 -3 -2 -20 -11 -38 -22 -43 -22 -145 0 -153 22 -9 24
-8 24 9 0 8 -4 15 -9 15 -11 0 -19 31 -13 50 3 8 14 -5 28 -35 l23 -50 0 35
c-1 52 0 60 11 60 6 0 10 -13 10 -30 0 -22 4 -28 15 -24 10 4 12 15 9 34 -4
15 -1 31 5 34 6 4 11 2 11 -5 0 -7 8 -5 20 6 11 10 20 25 20 33 0 26 13 4 20
-35 l7 -38 8 45 c7 34 10 40 15 25 4 -11 10 -30 14 -42 l8 -21 20 20 c11 11
23 41 28 66 l8 47 2 -50 c1 -27 5 -61 9 -75 l7 -25 7 28 c4 15 5 32 2 37 -4 6
1 10 10 10 9 0 18 12 22 32 6 30 7 30 15 9 10 -29 40 -24 49 9 4 16 7 19 8 8
1 -25 21 -22 21 3 0 27 20 14 21 -14 0 -21 1 -21 11 3 6 14 19 43 30 65 l19
40 -6 -45 c-5 -41 -4 -43 8 -25 8 11 19 34 26 50 l11 30 -5 -30 c-3 -16 -9
-39 -12 -50 -5 -17 -4 -18 11 -6 9 7 16 20 16 28 0 12 24 74 35 91 1 1 10 -1
20 -4 14 -6 16 -16 13 -55 -3 -27 -1 -46 4 -43 4 3 8 14 8 26 0 14 5 18 15 15
8 -4 17 -2 20 4 4 5 10 7 15 4 5 -3 22 21 36 55 26 58 54 79 54 43 1 -11 10
-3 25 22 14 22 25 35 25 28 0 -7 7 -10 15 -7 16 7 20 -6 7 -22 -5 -5 -13 -21
-20 -36 -17 -40 11 -26 37 18 22 37 50 49 31 13 -7 -11 -9 -23 -7 -26 5 -4 18
14 66 92 11 18 12 18 8 -8 -8 -52 14 -43 69 29 15 19 35 34 45 34 11 0 33 22
56 57 21 31 49 63 63 71 19 12 15 6 -12 -24 -46 -48 -49 -63 -8 -34 17 12 30
16 30 10 0 -17 28 2 98 64 35 31 79 63 99 71 42 18 54 14 18 -5 -14 -7 -25
-20 -25 -28 0 -11 7 -9 33 6 111 68 125 74 111 50 -4 -7 1 -6 12 3 25 21 99
59 116 59 7 0 -2 -10 -19 -21 -31 -20 -43 -39 -25 -39 20 0 92 62 92 79 0 21
28 28 107 27 44 -1 52 2 48 15 -10 31 19 41 97 34 40 -3 83 -8 96 -11 15 -3
22 0 22 10 0 8 5 18 12 22 7 5 9 2 5 -9 -6 -17 11 -27 45 -27 12 0 19 -3 16
-6 -5 -5 -120 -17 -143 -14 -54 5 -79 3 -82 -5 -2 -7 12 -9 36 -7 21 2 42 -1
45 -7 9 -14 41 -14 65 1 15 9 29 7 67 -7 30 -11 77 -19 122 -19 63 -1 72 -3
72 -20 0 -12 5 -16 15 -13 8 4 16 3 19 -1 7 -12 106 -13 106 -2 0 5 -4 10 -10
10 -6 0 -9 5 -7 12 1 6 -6 14 -17 16 -11 2 -16 0 -12 -7 11 -18 -2 -13 -23 8
-30 30 -98 48 -122 33 -15 -10 -19 -9 -19 2 0 8 -12 19 -27 25 -16 6 -35 15
-43 21 -8 5 -26 14 -40 20 -14 5 -36 19 -50 30 -32 25 -137 53 -158 41 -10 -6
9 -14 62 -25 88 -20 100 -31 24 -21 -46 5 -51 4 -36 -8 15 -12 15 -14 -3 -25
-19 -12 -99 -6 -99 7 0 4 12 12 28 18 l27 11 -35 -1 c-19 -1 -46 -7 -60 -14
-34 -17 -74 -17 -67 1 7 17 -122 51 -137 36 -6 -6 -21 -10 -34 -10 -13 0 -32
-4 -42 -10 -14 -8 -19 -5 -23 11 -5 18 -2 21 23 17 16 -3 28 0 27 6 -2 11 52
12 153 3 39 -3 53 -3 35 2 -27 7 -28 9 -10 16 11 4 30 17 43 29 23 20 24 20
37 2 8 -10 18 -15 24 -12 10 7 113 -7 144 -19 30 -12 18 12 -13 25 -16 7 -30
16 -30 20 0 7 -28 12 -133 26 -16 2 -32 6 -36 8 -4 3 -13 1 -21 -5z m-345
-139 c-3 -5 -18 -10 -33 -10 -21 0 -24 2 -12 10 20 13 53 13 45 0z m75 -10 c0
-5 -16 -10 -36 -10 -21 0 -33 -4 -29 -10 3 -5 1 -10 -5 -10 -23 0 -2 25 26 31
44 10 44 10 44 -1z m160 -15 c0 -31 16 -32 47 -3 13 12 23 16 23 10 0 -7 9
-12 20 -12 22 0 26 -20 8 -38 -17 -17 -38 -15 -38 4 0 8 -4 12 -10 9 -5 -3
-33 -3 -61 1 -47 6 -50 8 -34 20 17 13 18 14 1 14 -9 0 -14 5 -11 10 3 6 17
10 31 10 19 0 24 -5 24 -25z m-164 -24 c-7 -10 -66 -33 -66 -25 0 4 57 32 68
34 2 0 1 -4 -2 -9z m679 -21 c3 -5 -1 -10 -9 -10 -8 0 -18 5 -21 10 -3 6 1 10
9 10 8 0 18 -4 21 -10z m-525 -4 c0 -11 -116 -66 -149 -71 l-36 -6 35 20 c32
18 33 20 11 21 -14 0 -32 -6 -40 -14 -9 -7 -27 -17 -41 -21 l-25 -7 21 22 c12
12 39 26 60 31 22 4 55 12 74 17 37 11 90 15 90 8z m10 -41 c-7 -9 -15 -13
-19 -10 -3 3 1 10 9 15 21 14 24 12 10 -5z m620 5 c0 -5 -4 -10 -10 -10 -5 0
-10 5 -10 10 0 6 5 10 10 10 6 0 10 -4 10 -10z m-1336 -345 c3 -8 1 -15 -4
-15 -6 0 -10 7 -10 15 0 8 2 15 4 15 2 0 6 -7 10 -15z m-537 -267 c-3 -8 -6
-5 -6 6 -1 11 2 17 5 13 3 -3 4 -12 1 -19z"/>
<path d="M10735 16120 c4 -6 11 -8 16 -5 14 9 11 15 -7 15 -8 0 -12 -5 -9 -10z"/>
<path d="M12810 16110 c0 -5 5 -10 11 -10 5 0 7 5 4 10 -3 6 -8 10 -11 10 -2
0 -4 -4 -4 -10z"/>
<path d="M7070 16094 c0 -17 17 -36 24 -26 3 5 -1 15 -9 22 -8 7 -15 9 -15 4z"/>
<path d="M11201 15866 c-18 -22 2 -28 64 -21 50 7 85 24 53 26 -7 1 -34 3 -59
5 -32 3 -50 0 -58 -10z"/>
<path d="M11406 15839 c10 -16 40 -28 52 -20 8 5 0 11 -23 18 -19 6 -33 7 -29
2z"/>
<path d="M11300 15826 c0 -9 30 -14 35 -6 4 6 -3 10 -14 10 -12 0 -21 -2 -21
-4z"/>
<path d="M11650 15826 c0 -2 7 -7 16 -10 8 -3 12 -2 9 4 -6 10 -25 14 -25 6z"/>
<path d="M11208 15803 c7 -3 16 -2 19 1 4 3 -2 6 -13 5 -11 0 -14 -3 -6 -6z"/>
<path d="M11690 15800 c0 -5 5 -10 10 -10 6 0 10 5 10 10 0 6 -4 10 -10 10 -5
0 -10 -4 -10 -10z"/>
<path d="M11396 15791 c-3 -5 9 -11 27 -15 22 -5 28 -9 19 -15 -19 -12 6 -21
33 -11 19 7 19 7 -2 18 -40 22 -72 31 -77 23z"/>
<path d="M11548 15793 c7 -3 16 -2 19 1 4 3 -2 6 -13 5 -11 0 -14 -3 -6 -6z"/>
<path d="M11318 15773 c7 -3 16 -2 19 1 4 3 -2 6 -13 5 -11 0 -14 -3 -6 -6z"/>
<path d="M11206 15760 c6 -6 26 -6 54 -1 l45 9 -54 1 c-36 1 -52 -2 -45 -9z"/>
<path d="M12735 15747 c-4 -10 -5 -21 -1 -24 10 -10 18 4 13 24 -4 17 -4 17
-12 0z"/>
<path d="M12975 15740 c3 -5 8 -10 11 -10 2 0 4 5 4 10 0 6 -5 10 -11 10 -5 0
-7 -4 -4 -10z"/>
<path d="M11520 15721 c0 -6 15 -13 33 -16 18 -4 43 -15 57 -25 l25 -20 -37 0
c-21 0 -38 -4 -38 -10 0 -5 25 -10 56 -10 48 0 58 -4 79 -27 12 -16 37 -33 55
-40 32 -12 32 -12 14 9 -11 11 -29 24 -41 29 -13 5 -23 15 -23 24 0 9 -12 21
-27 27 l-28 12 28 4 c21 2 44 -7 81 -31 64 -42 116 -70 122 -64 3 3 -18 19
-45 36 -28 17 -51 37 -51 44 0 7 -12 14 -27 15 -15 1 -36 8 -47 15 -39 25
-186 47 -186 28z"/>
<path d="M11780 15700 c0 -14 38 -32 58 -28 13 3 9 8 -15 21 -37 20 -43 21
-43 7z"/>
<path d="M11820 15647 c0 -2 22 -19 50 -38 48 -32 70 -60 33 -41 -10 5 -27 6
-38 2 -18 -6 -16 -9 15 -25 19 -10 29 -20 22 -22 -6 -3 -9 -9 -6 -15 4 -6 0
-14 -7 -19 -11 -6 -9 -9 8 -9 47 0 76 -29 31 -31 -22 0 -22 -1 2 -10 41 -17
61 -39 47 -54 -7 -6 -19 -14 -27 -18 -9 -3 -4 -6 13 -6 15 -1 28 -1 30 0 1 0
25 -8 52 -18 40 -16 53 -17 63 -7 8 9 8 15 -3 24 -19 16 -19 34 0 26 8 -3 15
-2 15 2 -1 11 -77 92 -87 92 -5 0 -22 14 -38 30 -16 17 -25 30 -20 30 4 0 -11
14 -33 30 -23 17 -42 33 -42 38 0 8 -57 42 -71 42 -5 0 -9 -2 -9 -3z m165
-159 c37 -17 30 -28 -10 -15 -19 6 -35 14 -35 19 0 11 14 10 45 -4z"/>
<path d="M12790 15625 c0 -8 5 -15 10 -15 6 0 10 7 10 15 0 8 -4 15 -10 15 -5
0 -10 -7 -10 -15z"/>
<path d="M11740 15620 c0 -12 40 -34 48 -26 3 4 -3 13 -14 21 -22 17 -34 19
-34 5z"/>
<path d="M11800 15580 c0 -5 9 -10 21 -10 11 0 17 5 14 10 -3 6 -13 10 -21 10
-8 0 -14 -4 -14 -10z"/>
<path d="M11865 15450 c-3 -5 3 -10 14 -10 12 0 21 5 21 10 0 6 -6 10 -14 10
-8 0 -18 -4 -21 -10z"/>
<path d="M11930 15395 c0 -17 2 -18 24 -9 18 7 12 24 -10 24 -8 0 -14 -7 -14
-15z"/>
<path d="M9083 15346 c-15 -13 -26 -26 -23 -29 3 -3 21 8 40 24 19 16 29 29
23 29 -7 0 -25 -11 -40 -24z"/>
<path d="M12123 15305 c4 -5 -5 -14 -20 -21 l-28 -12 36 -1 c19 -1 44 -8 55
-16 29 -22 34 -18 17 15 -8 17 -19 28 -24 24 -6 -3 -18 0 -27 7 -9 7 -14 9 -9
4z"/>
<path d="M13115 15280 c3 -5 8 -10 11 -10 2 0 4 5 4 10 0 6 -5 10 -11 10 -5 0
-7 -4 -4 -10z"/>
<path d="M12140 15184 c0 -8 5 -12 10 -9 6 3 10 10 10 16 0 5 -4 9 -10 9 -5 0
-10 -7 -10 -16z"/>
<path d="M8977 15170 c-3 -11 -1 -20 4 -20 5 0 9 2 9 4 0 2 3 11 6 20 3 9 2
16 -4 16 -5 0 -12 -9 -15 -20z"/>
<path d="M12165 15170 c-3 -5 1 -10 10 -10 9 0 13 5 10 10 -3 6 -8 10 -10 10
-2 0 -7 -4 -10 -10z"/>
<path d="M7060 15095 c-11 -13 -10 -14 4 -9 9 3 16 10 16 15 0 13 -6 11 -20
-6z"/>
<path d="M8951 15084 c0 -11 3 -14 6 -6 3 7 2 16 -1 19 -3 4 -6 -2 -5 -13z"/>
<path d="M9240 15073 c0 -4 5 -15 10 -23 8 -13 10 -13 10 2 0 9 -4 20 -10 23
-5 3 -10 3 -10 -2z"/>
<path d="M7758 14963 c6 -2 18 -2 25 0 6 3 1 5 -13 5 -14 0 -19 -2 -12 -5z"/>
<path d="M10570 14945 c-196 -25 -298 -51 -379 -99 -34 -20 -69 -36 -77 -36
-7 0 -14 -7 -14 -16 0 -12 -6 -15 -24 -10 -25 6 -63 -24 -52 -42 3 -5 -1 -18
-9 -28 -8 -10 -15 -28 -15 -38 0 -19 1 -19 23 1 12 11 42 31 67 44 24 13 52
32 62 41 10 10 30 21 45 24 16 4 44 17 63 29 53 32 208 74 360 96 148 21 232
23 330 9 36 -5 83 -12 105 -15 64 -9 174 -44 260 -82 133 -59 139 -61 179 -68
22 -4 62 -18 89 -31 84 -43 61 -21 -36 35 -145 84 -285 129 -527 170 -150 26
-319 32 -450 16z"/>
<path d="M10959 14786 c-2 -2 -69 -6 -147 -8 -79 -1 -146 -6 -149 -10 -2 -5
-19 -8 -37 -8 -46 0 -214 -61 -276 -101 -8 -5 -33 -18 -55 -29 -85 -41 -132
-74 -182 -128 -28 -31 -50 -59 -48 -63 5 -7 -25 -37 -38 -38 -4 0 -13 -5 -20
-10 -71 -58 -87 -76 -93 -106 -10 -53 1 -72 44 -77 20 -3 39 -2 42 2 3 4 32
12 64 18 33 7 63 17 66 23 5 6 21 8 45 3 33 -6 37 -5 32 10 -4 9 -2 16 3 16 6
0 10 -4 10 -10 0 -5 8 -10 18 -10 10 0 23 -5 29 -11 8 -8 17 -8 33 1 24 13
100 4 100 -12 0 -5 13 0 29 11 16 12 39 21 51 21 19 0 21 -4 15 -27 -4 -19 -3
-25 4 -18 5 6 11 23 13 40 3 28 2 29 -38 26 -29 -1 -45 3 -55 15 -12 16 -12
17 4 11 9 -3 17 -2 17 2 0 13 -28 21 -47 14 -16 -6 -16 -5 -4 10 12 15 11 17
-5 18 -11 0 -14 3 -8 5 5 2 9 18 8 35 -1 18 3 32 12 36 8 3 14 10 14 15 0 15
50 51 87 64 31 11 35 10 54 -17 11 -16 17 -33 14 -39 -3 -6 7 -21 23 -35 17
-14 33 -36 36 -50 4 -14 14 -25 24 -26 78 -5 278 31 402 72 100 33 157 40 168
22 4 -6 24 -9 45 -7 25 2 52 -4 75 -16 20 -11 39 -20 43 -20 12 0 48 37 42 44
-17 17 29 3 61 -19 45 -30 55 -32 31 -5 -26 29 -9 38 20 10 23 -21 25 -22 25
-5 0 16 4 15 28 -8 37 -35 42 -34 35 8 -7 45 10 52 91 38 46 -8 67 -7 85 2
l24 12 -28 7 c-56 14 -212 78 -310 128 -118 60 -286 128 -370 150 -68 18 -149
31 -156 24z m48 -108 c-3 -8 -6 -5 -6 6 -1 11 2 17 5 13 3 -3 4 -12 1 -19z"/>
<path d="M11848 14453 c7 -3 16 -2 19 1 4 3 -2 6 -13 5 -11 0 -14 -3 -6 -6z"/>
<path d="M11100 14381 c0 -5 7 -12 16 -15 14 -5 15 -4 4 9 -14 17 -20 19 -20
6z"/>
<path d="M11182 14370 c0 -14 2 -19 5 -12 2 6 2 18 0 25 -3 6 -5 1 -5 -13z"/>
<path d="M11120 14340 c0 -5 5 -10 10 -10 6 0 10 5 10 10 0 6 -4 10 -10 10 -5
0 -10 -4 -10 -10z"/>
<path d="M10805 14310 c3 -5 8 -10 11 -10 2 0 4 5 4 10 0 6 -5 10 -11 10 -5 0
-7 -4 -4 -10z"/>
<path d="M10686 14299 c2 -4 0 -10 -6 -14 -5 -3 -14 -24 -20 -46 -8 -28 -16
-39 -25 -35 -7 2 -16 -2 -19 -10 -4 -10 2 -14 20 -14 17 0 28 8 36 28 12 28
47 72 57 72 4 0 15 -16 25 -35 26 -47 33 -36 10 13 -15 32 -25 41 -51 44 -17
2 -30 1 -27 -3z"/>
<path d="M10553 14288 c-15 -19 -24 -78 -12 -78 5 0 12 7 16 16 3 8 11 13 18
10 8 -3 16 2 19 10 9 23 8 24 -11 17 -13 -5 -15 -2 -11 15 7 24 -4 29 -19 10z"/>
<path d="M10797 14283 c-4 -3 -7 -11 -7 -17 0 -6 5 -5 12 2 6 6 9 14 7 17 -3
3 -9 2 -12 -2z"/>
<path d="M14802 13510 c0 -14 2 -19 5 -12 2 6 2 18 0 25 -3 6 -5 1 -5 -13z"/>
<path d="M9380 13445 c14 -17 5 -35 -16 -35 -8 0 -12 -4 -9 -10 8 -13 55 -13
55 0 0 17 -23 60 -33 60 -5 0 -4 -7 3 -15z"/>
<path d="M14803 13384 c-6 -17 3 -144 12 -152 10 -10 16 7 22 61 6 60 -2 107
-18 107 -5 0 -12 -7 -16 -16z"/>
<path d="M15231 13294 c0 -11 3 -14 6 -6 3 7 2 16 -1 19 -3 4 -6 -2 -5 -13z"/>
<path d="M14616 13136 c-9 -19 -19 -55 -22 -80 -6 -41 -5 -46 13 -46 27 0 87
-67 93 -105 4 -25 9 -30 30 -27 13 1 21 0 18 -4 -4 -3 2 -14 13 -25 15 -15 18
-28 13 -66 l-6 -48 34 35 c24 25 31 39 25 48 -5 7 -9 75 -8 151 1 88 -2 142
-9 146 -5 3 -10 -1 -10 -9 0 -33 -22 -28 -95 19 -16 11 -34 25 -38 32 -14 23
-34 14 -51 -21z"/>
<path d="M15460 13085 c-8 -9 -10 -28 -5 -51 3 -20 8 -34 10 -33 4 4 13 99 10
99 -2 0 -8 -7 -15 -15z"/>
<path d="M13725 12890 c3 -5 8 -10 11 -10 2 0 4 5 4 10 0 6 -5 10 -11 10 -5 0
-7 -4 -4 -10z"/>
<path d="M13756 12835 c-3 -8 -1 -15 4 -15 6 0 10 7 10 15 0 8 -2 15 -4 15 -2
0 -6 -7 -10 -15z"/>
<path d="M15100 12329 c0 -5 5 -7 10 -4 6 3 10 8 10 11 0 2 -4 4 -10 4 -5 0
-10 -5 -10 -11z"/>
<path d="M9495 12305 c-5 -1 -37 -11 -70 -20 -33 -10 -86 -31 -117 -46 -65
-33 -188 -143 -188 -168 0 -9 -5 -22 -11 -28 -22 -22 -5 -33 25 -18 16 9 46
16 65 16 20 0 56 2 81 4 25 2 81 4 125 3 44 0 114 0 155 -1 76 0 240 10 246
15 1 2 5 26 9 53 5 45 3 53 -23 80 -43 46 -97 84 -143 100 -37 13 -126 19
-154 10z"/>
<path d="M8500 10780 c0 -5 5 -10 10 -10 6 0 10 5 10 10 0 6 -4 10 -10 10 -5
0 -10 -4 -10 -10z"/>
<path d="M10688 10738 c-16 -5 -28 -14 -28 -19 0 -13 48 -31 83 -32 15 0 27
-4 27 -9 0 -4 7 -8 16 -8 9 0 22 -7 28 -16 11 -14 19 -14 81 -1 83 16 95 35
39 62 -36 17 -104 23 -124 10 -5 -3 -18 -2 -27 3 -32 16 -67 20 -95 10z"/>
<path d="M8663 10059 c-14 -14 -6 -39 13 -39 15 0 16 6 6 33 -6 13 -10 15 -19
6z"/>
<path d="M9110 9471 c0 -6 5 -13 10 -16 6 -3 10 1 10 9 0 9 -4 16 -10 16 -5 0
-10 -4 -10 -9z"/>
<path d="M9235 9440 c-3 -5 1 -10 9 -10 9 0 16 5 16 10 0 6 -4 10 -9 10 -6 0
-13 -4 -16 -10z"/>
<path d="M12496 8829 c-8 -18 -12 -37 -10 -41 10 -16 35 -7 46 17 9 21 9 29
-5 42 -15 16 -17 14 -31 -18z"/>
<path d="M13045 8830 c3 -5 15 -10 26 -10 10 0 19 5 19 10 0 6 -12 10 -26 10
-14 0 -23 -4 -19 -10z"/>
<path d="M12720 8420 c0 -5 5 -10 10 -10 6 0 10 5 10 10 0 6 -4 10 -10 10 -5
0 -10 -4 -10 -10z"/>
<path d="M12700 8360 c0 -5 5 -10 10 -10 6 0 10 5 10 10 0 6 -4 10 -10 10 -5
0 -10 -4 -10 -10z"/>
<path d="M11120 8121 c0 -5 5 -13 10 -16 6 -3 10 -2 10 4 0 5 -4 13 -10 16 -5
3 -10 2 -10 -4z"/>
<path d="M9673 8077 c4 -10 7 -24 7 -30 0 -8 3 -8 11 0 9 9 7 16 -7 30 -17 17
-18 17 -11 0z"/>
<path d="M10282 7948 c-14 -14 -16 -38 -3 -38 8 0 23 41 17 47 -1 1 -8 -3 -14
-9z"/>
<path d="M11170 7930 c0 -5 5 -10 10 -10 6 0 10 5 10 10 0 6 -4 10 -10 10 -5
0 -10 -4 -10 -10z"/>
<path d="M11100 7860 c0 -5 5 -10 11 -10 5 0 7 5 4 10 -3 6 -8 10 -11 10 -2 0
-4 -4 -4 -10z"/>
<path d="M10376 7838 c-3 -13 -1 -27 4 -32 7 -7 10 1 10 22 0 37 -5 41 -14 10z"/>
<path d="M11150 7841 c0 -6 5 -13 10 -16 6 -3 10 1 10 9 0 9 -4 16 -10 16 -5
0 -10 -4 -10 -9z"/>
<path d="M9837 7833 c-4 -3 -7 -13 -7 -21 0 -12 3 -12 15 -2 8 7 15 16 15 21
0 11 -14 12 -23 2z"/>
<path d="M9892 7808 c-6 -6 -12 -19 -12 -27 0 -13 2 -13 16 1 9 9 15 21 13 27
-3 9 -8 8 -17 -1z"/>
<path d="M9780 7790 c0 -5 5 -10 10 -10 6 0 10 5 10 10 0 6 -4 10 -10 10 -5 0
-10 -4 -10 -10z"/>
<path d="M11120 7785 c0 -8 5 -15 10 -15 6 0 10 7 10 15 0 8 -4 15 -10 15 -5
0 -10 -7 -10 -15z"/>
<path d="M9960 7766 c0 -9 5 -16 10 -16 6 0 10 4 10 9 0 6 -4 13 -10 16 -5 3
-10 -1 -10 -9z"/>
<path d="M10795 7770 c3 -5 10 -10 16 -10 5 0 9 5 9 10 0 6 -7 10 -16 10 -8 0
-12 -4 -9 -10z"/>
<path d="M9490 7750 c0 -5 9 -10 20 -10 11 0 20 5 20 10 0 6 -9 10 -20 10 -11
0 -20 -4 -20 -10z"/>
<path d="M9560 7694 c0 -8 5 -12 10 -9 6 3 10 10 10 16 0 5 -4 9 -10 9 -5 0
-10 -7 -10 -16z"/>
<path d="M10557 6603 c-15 -14 -6 -33 16 -33 31 0 39 9 22 26 -15 15 -28 18
-38 7z"/>
<path d="M10650 6380 c-13 -9 -13 -10 0 -10 8 0 22 5 30 10 13 9 13 10 0 10
-8 0 -22 -5 -30 -10z"/>
<path d="M11125 6150 c-3 -5 -1 -10 4 -10 6 0 11 5 11 10 0 6 -2 10 -4 10 -3
0 -8 -4 -11 -10z"/>
<path d="M11365 6100 c-3 -5 1 -10 10 -10 9 0 13 5 10 10 -3 6 -8 10 -10 10
-2 0 -7 -4 -10 -10z"/>
<path d="M10820 5820 c0 -5 14 -10 31 -10 17 0 28 4 24 10 -3 6 -17 10 -31 10
-13 0 -24 -4 -24 -10z"/>
<path d="M11880 3683 c0 -12 28 -38 34 -32 2 2 -5 13 -15 23 -11 11 -19 15
-19 9z"/>
<path d="M11840 3670 c0 -5 5 -10 10 -10 6 0 10 5 10 10 0 6 -4 10 -10 10 -5
0 -10 -4 -10 -10z"/>
<path d="M11675 3330 c-8 -13 5 -13 25 0 13 8 13 10 -2 10 -9 0 -20 -4 -23
-10z"/>
<path d="M11637 3266 c-3 -8 -2 -18 3 -21 13 -8 24 15 12 27 -6 6 -11 4 -15
-6z"/>
<path d="M11635 3220 c-3 -5 -1 -10 4 -10 6 0 11 5 11 10 0 6 -2 10 -4 10 -3
0 -8 -4 -11 -10z"/>
<path d="M11665 3180 c3 -5 8 -10 11 -10 2 0 4 5 4 10 0 6 -5 10 -11 10 -5 0
-7 -4 -4 -10z"/>
<path d="M11726 3092 c-3 -6 -1 -14 5 -17 14 -9 20 -2 10 14 -6 8 -11 9 -15 3z"/>
<path d="M11686 2812 c-2 -4 4 -13 15 -20 22 -14 25 -7 5 14 -8 8 -17 11 -20
6z"/>
<path d="M11670 2780 c0 -5 5 -10 10 -10 6 0 10 5 10 10 0 6 -4 10 -10 10 -5
0 -10 -4 -10 -10z"/>
<path d="M11737 2749 c7 -7 15 -10 18 -7 3 3 -2 9 -12 12 -14 6 -15 5 -6 -5z"/>
<path d="M11690 2660 c0 -5 5 -10 10 -10 6 0 10 5 10 10 0 6 -4 10 -10 10 -5
0 -10 -4 -10 -10z"/>
<path d="M11751 17794 c0 -11 3 -14 6 -6 3 7 2 16 -1 19 -3 4 -6 -2 -5 -13z"/>
<path d="M7508 14023 c6 -2 18 -2 25 0 6 3 1 5 -13 5 -14 0 -19 -2 -12 -5z"/>
<path d="M15045 13960 c3 -5 11 -10 16 -10 6 0 7 5 4 10 -3 6 -11 10 -16 10
-6 0 -7 -4 -4 -10z"/>
<path d="M14937 13893 c-4 -3 -7 -11 -7 -17 0 -6 5 -5 12 2 6 6 9 14 7 17 -3
3 -9 2 -12 -2z"/>
<path d="M7175 13330 c-3 -5 -1 -10 4 -10 6 0 11 5 11 10 0 6 -2 10 -4 10 -3
0 -8 -4 -11 -10z"/>
<path d="M6865 12980 c-10 -11 -14 -20 -8 -20 5 0 18 9 28 20 10 11 14 20 8
20 -5 0 -18 -9 -28 -20z"/>
<path d="M7610 12890 c0 -5 5 -10 11 -10 5 0 7 5 4 10 -3 6 -8 10 -11 10 -2 0
-4 -4 -4 -10z"/>
<path d="M6805 12630 c-3 -5 -1 -10 4 -10 6 0 11 5 11 10 0 6 -2 10 -4 10 -3
0 -8 -4 -11 -10z"/>
<path d="M7400 12600 c0 -5 5 -10 10 -10 6 0 10 5 10 10 0 6 -4 10 -10 10 -5
0 -10 -4 -10 -10z"/>
<path d="M7480 12120 c0 -5 5 -10 11 -10 5 0 7 5 4 10 -3 6 -8 10 -11 10 -2 0
-4 -4 -4 -10z"/>
<path d="M7490 12070 c0 -5 5 -10 10 -10 6 0 10 5 10 10 0 6 -4 10 -10 10 -5
0 -10 -4 -10 -10z"/>
<path d="M7310 11889 c0 -5 5 -7 10 -4 6 3 10 8 10 11 0 2 -4 4 -10 4 -5 0
-10 -5 -10 -11z"/>
<path d="M6846 11511 c-4 -5 -2 -12 3 -15 5 -4 12 -2 15 3 4 5 2 12 -3 15 -5
4 -12 2 -15 -3z"/>
<path d="M7476 11501 c-4 -7 -5 -15 -2 -18 9 -9 19 4 14 18 -4 11 -6 11 -12 0z"/>
<path d="M7640 11199 c0 -5 5 -7 10 -4 6 3 10 8 10 11 0 2 -4 4 -10 4 -5 0
-10 -5 -10 -11z"/>
<path d="M7823 11063 c-18 -7 -16 -23 2 -23 8 0 15 7 15 15 0 8 -1 15 -2 14
-2 0 -9 -3 -15 -6z"/>
<path d="M7470 10590 c0 -19 3 -21 12 -12 9 9 9 15 0 24 -9 9 -12 7 -12 -12z"/>
</g>
</svg>
